<svg xmlns="http://www.w3.org/2000/svg" xmlns:xlink="http://www.w3.org/1999/xlink" width="117.533" height="117.337" viewBox="0 0 117.533 117.337"><defs><linearGradient id="linear-gradient" y1="0.5" x2="1" y2="0.5" gradientUnits="objectBoundingBox"><stop offset="0" stop-color="#f9d418"/><stop offset="1" stop-color="#f9bb18"/></linearGradient></defs><g id="Group_16329" data-name="Group 16329" transform="translate(2008.466 -3853.111)"><path id="Path_7672" data-name="Path 7672" d="M-1949.615,3853.111h-.2a58.669,58.669,0,0,0-58.654,58.683,58.668,58.668,0,0,0,58.682,58.654h.2a58.669,58.669,0,0,0,58.655-58.682A58.669,58.669,0,0,0-1949.615,3853.111Zm34.807,21.466h0a78.19,78.19,0,0,1-10.734,4.372,58.219,58.219,0,0,0-7.474-15.371A51.032,51.032,0,0,1-1914.808,3874.577Zm-51.62-10.935a58.722,58.722,0,0,0-7.417,15.243,80.2,80.2,0,0,1-10.578-4.308A50.264,50.264,0,0,1-1966.428,3863.642Zm-23.383,16.8a84.225,84.225,0,0,0,13.876,5.865,106.6,106.6,0,0,0-2.764,21.494h-21.714A50.264,50.264,0,0,1-1989.81,3880.442Zm-10.629,35.3h21.713a110.865,110.865,0,0,0,2.764,21.493,89.372,89.372,0,0,0-13.876,5.832A50.537,50.537,0,0,1-2000.439,3915.743Zm67.482,44.232a58.26,58.26,0,0,0,7.456-15.346,77.124,77.124,0,0,1,10.718,4.413A51.621,51.621,0,0,1-1932.958,3959.976Zm23.538-16.858,0,.036a85.947,85.947,0,0,0-14.02-5.924,110.4,110.4,0,0,0,2.4-15.448,25.051,25.051,0,0,1-8.456,6.27q-.549,3.578-1.359,7.116a84.235,84.235,0,0,0-14.059-1.925v7.67a79.469,79.469,0,0,1,11.945,1.64c-3.213,9.479-7.895,16.443-12.693,19.038v-15.154a6.106,6.106,0,0,1-5.747,3.177h-2.147v12.105c-3.568-1.9-7.055-6.185-9.953-12.105h-4.989a6.773,6.773,0,0,1-3.989-1.17,58.934,58.934,0,0,0,6.064,11.474,51.536,51.536,0,0,1-18.012-10.924,78.773,78.773,0,0,1,9.691-4.026,7.942,7.942,0,0,1-.2-1.8v-57.489c0-4.09,2.541-6.63,6.63-6.63l2.6,0c3.231-8.566,7.655-14.791,12.158-17.186v17.171l1.831,0q3.032,0,6.063.014v-17.07c4.682,2.533,9.25,9.234,12.454,18.339.905.255,1.787.544,2.649.88a25.392,25.392,0,0,1,7.865,4.9,86.016,86.016,0,0,0,13.281-5.669,50.537,50.537,0,0,1,10.63,27.418h-16.352a26.9,26.9,0,0,1-1.722,7.014c-.123.315-.275.609-.411.917h18.485A50.313,50.313,0,0,1-1909.42,3943.117Z" transform="translate(0 0)" fill="url(#linear-gradient)"/><path id="Path_205" data-name="Path 205" d="M-1966.8,3916.424V3887.7c0-.992,0-.992.992-.992,8.3,0,16.592-.045,24.889,0a29.468,29.468,0,0,1,10.822,1.759c6.627,2.66,10.46,7.619,11.633,14.608a21.275,21.275,0,0,1-1.128,11.723,18.483,18.483,0,0,1-10.371,10.461,24.413,24.413,0,0,1-9.649,1.939c-2.57.045-5.14,0-7.71,0-.722,0-.722,0-.722.721v17.224c0,.857,0,.857-.857.857h-17.088c-.812,0-.812,0-.812-.812Zm23.807-.361h0c1.262,0,2.525.045,3.742-.045a1.357,1.357,0,0,0,1.31-1.4,1.365,1.365,0,0,0-.092-.445c-.677-2.255-1.353-4.509-2.074-6.763a.872.872,0,0,1,.316-1.128,5.115,5.115,0,0,0,1.623-5.726,5.111,5.111,0,0,0-6.539-3.082,5.109,5.109,0,0,0-3.065,3.037,5.025,5.025,0,0,0,1.488,5.636,1.086,1.086,0,0,1,.36,1.4c-.721,2.164-1.352,4.328-2.029,6.538a1.339,1.339,0,0,0,1.263,1.893,25.571,25.571,0,0,0,3.7.09Z" transform="translate(-2.515 -2.027)" fill="url(#linear-gradient)"/></g></svg>