<svg width="19" height="19" viewBox="0 0 19 19" fill="none" xmlns="http://www.w3.org/2000/svg">
<path d="M13.2867 11.1737L15.3342 13.2204L9.79315 18.7614L4.25286 13.2211L6.30032 11.1737L9.7939 14.6853L13.2867 11.1737ZM16.7811 7.68007L18.8451 9.72679L16.7992 11.7735L14.7517 9.72679L16.7811 7.68007ZM9.7939 7.68007L11.8406 9.7087L9.79315 11.7562L7.74644 9.72679L9.79315 7.68083L9.7939 7.68007ZM2.80599 7.68007L4.83613 9.72679L2.8075 11.7554L0.759277 9.72679L2.80599 7.68007ZM9.79466 0.691406L15.335 6.21512L13.2875 8.26108L9.7939 4.7675L6.30108 8.27917L4.25361 6.23245L9.7939 0.69216L9.79466 0.691406Z" fill="#A3A2A2"/>
</svg>
