<svg width="34" height="6" viewBox="0 0 34 6" fill="none" xmlns="http://www.w3.org/2000/svg">
<path d="M7.10525 1.76251C5.9127 1.76251 4.98137 2.66786 4.98137 3.87955C4.98137 5.09125 5.88945 5.9884 7.10525 5.9884C8.32105 5.9884 9.24418 5.0762 9.24418 3.87272C9.24418 2.67606 8.33609 1.76251 7.10525 1.76251ZM7.11346 5.11587C6.43376 5.11587 5.93732 4.58797 5.93732 3.87955C5.93732 3.1643 6.42555 2.6364 7.10525 2.6364C7.79179 2.6364 8.28959 3.1725 8.28959 3.88092C8.28959 4.58797 7.79179 5.11587 7.11346 5.11587ZM9.50539 2.68427H10.0976V5.91181H11.0453V1.84046H9.50539V2.68427ZM2.59627 2.6364C3.09408 2.6364 3.48931 2.94275 3.63838 3.39953H4.6422C4.46031 2.42443 3.65479 1.76251 2.60448 1.76251C1.41193 1.76251 0.480591 2.66786 0.480591 3.87955C0.480591 5.09262 1.38868 5.98976 2.60448 5.98976C3.63018 5.98976 4.45211 5.32784 4.634 4.34454H3.63838C3.57389 4.56835 3.43791 4.76491 3.25122 4.90418C3.06453 5.04346 2.83739 5.11781 2.60448 5.11587C1.91794 5.11587 1.43518 4.58797 1.43518 3.87955C1.43518 3.1643 1.90973 2.6364 2.59764 2.6364H2.59627ZM27.5071 3.48705L26.8124 3.38448C26.4814 3.33662 26.2448 3.22721 26.2448 2.96736C26.2448 2.68427 26.5525 2.54341 26.9697 2.54341C27.4292 2.54341 27.7218 2.73898 27.7834 3.06173H28.6997C28.5971 2.24254 27.9653 1.76251 26.9943 1.76251C25.9918 1.76251 25.3285 2.27536 25.3285 2.99882C25.3285 3.69082 25.7621 4.0929 26.6387 4.21872L27.3334 4.32129C27.674 4.36779 27.8627 4.50181 27.8627 4.75345C27.8627 5.07621 27.5317 5.21023 27.0736 5.21023C26.5129 5.21023 26.197 4.98184 26.1491 4.63584H25.2178C25.3053 5.43041 25.9289 5.98976 27.064 5.98976C28.0993 5.98976 28.7872 5.51657 28.7872 4.70695C28.7872 3.98212 28.2894 3.60467 27.5071 3.48705ZM10.5708 0.165149C10.4911 0.162346 10.4116 0.175816 10.3373 0.204734C10.263 0.233653 10.1954 0.277412 10.1386 0.333343C10.0818 0.389274 10.0369 0.456202 10.0068 0.530038C9.97673 0.603875 9.962 0.68307 9.96354 0.76279C9.96354 1.11016 10.2234 1.3618 10.5708 1.3618C10.6507 1.3648 10.7304 1.35143 10.8049 1.32252C10.8795 1.2936 10.9473 1.24975 11.0043 1.19365C11.0613 1.13755 11.1063 1.07039 11.1363 0.9963C11.1664 0.922207 11.1811 0.842743 11.1793 0.76279C11.1809 0.682951 11.1661 0.603638 11.1359 0.529707C11.1058 0.455775 11.0608 0.388783 11.0038 0.332832C10.9469 0.276881 10.8791 0.23315 10.8046 0.204317C10.7301 0.175484 10.6506 0.162156 10.5708 0.165149ZM24.4752 3.23541C24.4752 2.35331 23.9391 1.76387 22.8012 1.76387C21.7276 1.76387 21.1273 2.30681 21.0097 3.14105H21.9492C21.9971 2.8183 22.2501 2.55025 22.7862 2.55025C23.2676 2.55025 23.5042 2.76222 23.5042 3.02207C23.5042 3.36123 23.0706 3.44739 22.5332 3.5021C21.807 3.58142 20.9057 3.83306 20.9057 4.77807C20.9057 5.50974 21.4528 5.98156 22.3198 5.98156C22.9995 5.98156 23.4262 5.69846 23.6396 5.24989C23.671 5.6506 23.9705 5.91044 24.389 5.91044H24.9415V5.068H24.4765V3.23541H24.4752ZM23.5452 4.25838C23.5452 4.80132 23.0706 5.20202 22.4935 5.20202C22.1379 5.20202 21.8371 5.05159 21.8371 4.73704C21.8371 4.33633 22.3198 4.22692 22.7616 4.17906C23.1882 4.14077 23.4248 4.0464 23.5438 3.86451L23.5452 4.25838ZM18.5138 1.76251C17.9859 1.76251 17.5428 1.98406 17.2282 2.35331V0.125488H16.2805V5.91044H17.2105V5.37571C17.5277 5.76137 17.9763 5.98976 18.5138 5.98976C19.6516 5.98976 20.5118 5.09262 20.5118 3.87955C20.5118 2.66786 19.6366 1.76251 18.5152 1.76251H18.5138ZM18.3729 5.11587C17.6932 5.11587 17.1968 4.58797 17.1968 3.87955C17.1968 3.1725 17.7014 2.6364 18.3798 2.6364C19.0677 2.6364 19.5491 3.1643 19.5491 3.88092C19.5491 4.58797 19.0513 5.11587 18.3729 5.11587ZM14.0144 1.76251C13.399 1.76251 12.9955 2.01415 12.7575 2.36836V1.84183H11.818V5.91044H12.7658V3.69903C12.7658 3.07677 13.161 2.6364 13.745 2.6364C14.2893 2.6364 14.6298 3.02207 14.6298 3.58005V5.91044H15.5762V3.5103C15.5762 2.48734 15.0483 1.76251 14.0144 1.76251ZM33.303 3.74553C33.303 2.5817 32.4496 1.76251 31.3063 1.76251C30.0892 1.76251 29.1975 2.67606 29.1975 3.87955C29.1975 5.14732 30.1521 5.98976 31.3214 5.98976C32.3088 5.98976 33.0815 5.40717 33.2798 4.58113H32.2924C32.1501 4.94218 31.8028 5.14732 31.3364 5.14732C30.7278 5.14732 30.2697 4.76986 30.1685 4.10794H33.303V3.7469V3.74553ZM30.2232 3.43098C30.3736 2.86479 30.8003 2.58991 31.2899 2.58991C31.826 2.58991 32.2377 2.89625 32.332 3.43098H30.2232Z" fill="#A3A2A2"/>
</svg>
