<svg width="13" height="12" viewBox="0 0 13 12" fill="none" xmlns="http://www.w3.org/2000/svg">
<path d="M11.2173 1.99704C10.952 1.73163 10.637 1.52108 10.2903 1.37744C9.94364 1.23379 9.57205 1.15985 9.19679 1.15985C8.82152 1.15985 8.44994 1.23379 8.10325 1.37744C7.75657 1.52108 7.44159 1.73163 7.1763 1.99704L6.62573 2.54761L6.07516 1.99704C5.53929 1.46118 4.8125 1.16013 4.05467 1.16013C3.29684 1.16013 2.57005 1.46118 2.03418 1.99704C1.49831 2.53291 1.19727 3.2597 1.19727 4.01753C1.19727 4.77536 1.49831 5.50215 2.03418 6.03802L2.58475 6.58859L6.62573 10.6296L10.6667 6.58859L11.2173 6.03802C11.4827 5.77273 11.6932 5.45775 11.8369 5.11107C11.9805 4.76438 12.0545 4.3928 12.0545 4.01753C12.0545 3.64227 11.9805 3.27068 11.8369 2.924C11.6932 2.57732 11.4827 2.26233 11.2173 1.99704V1.99704Z" stroke="#BBC7CD" strokeWidth="1.03881" strokeLinecap="round" strokeLinejoin="round"/>
</svg>
