<svg xmlns="http://www.w3.org/2000/svg" width="182.307" height="71.515" viewBox="0 0 182.307 71.515"><g id="Group_2443" data-name="Group 2443" transform="translate(-659.7 4223)"><path id="Path_191" data-name="Path 191" d="M672.358-4180.473h-12.6a1.29,1.29,0,0,1-.061-.334v-41.859a.279.279,0,0,1,.273-.3c.121,0,.212-.03.334-.03H677.73a21.182,21.182,0,0,1,4.583.486,13.521,13.521,0,0,1,3.582,1.245,12.3,12.3,0,0,1,3.612,2.762,12.355,12.355,0,0,1,2.186,3.369,13.314,13.314,0,0,1,.911,2.823,20.165,20.165,0,0,1,.425,4.675,5.987,5.987,0,0,1-.091.729c-.091.607-.182,1.245-.3,1.851a13,13,0,0,1-1.093,3.279,12.119,12.119,0,0,1-1.123,1.912,13.216,13.216,0,0,1-1.609,1.852,13.056,13.056,0,0,1-3.734,2.52,13.148,13.148,0,0,1-2.519.881,20.533,20.533,0,0,1-4.523.607h-5.342c-.273.03-.334.122-.334.364,0,.182.03.395.03.577v11.989A.853.853,0,0,1,672.358-4180.473Zm3.916-21.37c.455,0,1.214-.03,1.943-.061a1.362,1.362,0,0,0,.607-.122,1.035,1.035,0,0,0,.7-1.245c-.03-.121-.061-.212-.091-.334-.273-.971-.577-1.942-.85-2.913-.182-.637-.395-1.245-.577-1.882a.377.377,0,0,1,.121-.456c.212-.182.395-.395.577-.577a3.345,3.345,0,0,0,.88-2.094,3.641,3.641,0,0,0-1.912-3.643,3.125,3.125,0,0,0-2.7-.273,4.4,4.4,0,0,0-1.153.667,3.6,3.6,0,0,0-1.153,1.548,3.621,3.621,0,0,0-.182,1.609,3.389,3.389,0,0,0,.577,1.79,6.04,6.04,0,0,0,.82.941.4.4,0,0,1,.152.546c-.152.486-.334.971-.486,1.458-.3,1-.607,2.034-.911,3.035a5.716,5.716,0,0,0-.152.7.891.891,0,0,0,.273.819,1.7,1.7,0,0,0,1.123.456C674.573-4201.843,675.3-4201.843,676.273-4201.843Z" transform="translate(0)" fill="#fbbe19"/><path id="Path_192" data-name="Path 192" d="M913.628-4047.7c-.425.061-9.137.061-9.622.03a1.016,1.016,0,0,1-.152-.425l-1.457-7.558c-.395-1.973-.759-3.946-1.154-5.889a1.945,1.945,0,0,0-.121-.394c-.03,0-.061,0-.061.03l-.03.03c0,.031-.03.061-.03.092-.03.091-.03.182-.061.273-.911,4.584-1.791,9.167-2.7,13.72,0,.031,0,.031-.03.031l-.061.06a.9.9,0,0,1-.486.061h-9.106a2.273,2.273,0,0,1-.121-.334c-.455-2-.88-4.007-1.336-6.01-.486-2.186-.941-4.341-1.427-6.526-.668-3.066-1.336-6.132-2.034-9.2-.243-1.093-.486-2.155-.7-3.248a.745.745,0,0,1-.03-.516c.061,0,.121-.031.182-.031h8.013c.182.152.152.334.182.516.121.789.213,1.548.334,2.337.212,1.548.425,3.066.637,4.614.212,1.518.425,3.036.607,4.583.152,1.215.334,2.429.486,3.613a.44.44,0,0,0,.061.212c.121.03.091-.061.121-.122a.225.225,0,0,0,.03-.151c.273-1.305.546-2.641.82-3.946.577-2.732,1.123-5.463,1.7-8.2.212-.971.395-1.943.607-2.914.03-.182.091-.334.121-.516.121,0,.243-.03.334-.03h7.71c.121,0,.243.03.395.03a1.376,1.376,0,0,1,.091.334c.364,1.791.759,3.612,1.123,5.4.516,2.519,1.032,5.009,1.548,7.528.152.7.273,1.427.425,2.125a.988.988,0,0,0,.121.425c.121,0,.121-.092.121-.152l.273-1.913.546-3.916c.152-1.062.3-2.125.425-3.187.182-1.305.364-2.641.546-3.946.091-.758.212-1.518.3-2.276.061-.455.061-.455.546-.455h7.588c.213.031.273.092.243.334-.061.3-.121.607-.182.88-.607,2.793-1.214,5.585-1.852,8.348-.577,2.671-1.184,5.312-1.761,7.983-.577,2.58-1.123,5.16-1.7,7.74A1,1,0,0,1,913.628-4047.7Z" transform="translate(-155.429 -104.121)" fill="#161616"/><path id="Path_193" data-name="Path 193" d="M795.742-4159.782c1,1.852,2,3.673,2.975,5.464s1.973,3.582,2.944,5.433a2.51,2.51,0,0,0-.3.061h-9.167a2.551,2.551,0,0,1-.212-.4c-1-1.973-1.973-3.946-2.975-5.919-.607-1.184-1.184-2.367-1.791-3.582a.973.973,0,0,0-.122-.182c-.121,0-.121.062-.121.122v9.289a1.431,1.431,0,0,1-.061.607.717.717,0,0,1-.243.061h-7.71a1.434,1.434,0,0,1-.607-.061.888.888,0,0,1-.061-.273v-27.652a1.976,1.976,0,0,1,.061-.728.706.706,0,0,1,.243-.061H791.25a13.6,13.6,0,0,1,4.128.607,8.883,8.883,0,0,1,4.675,3.37,8.558,8.558,0,0,1,1.245,2.792,10.2,10.2,0,0,1,.182,4.28,8.031,8.031,0,0,1-3.46,5.494,9.606,9.606,0,0,1-1.912,1A.59.59,0,0,1,795.742-4159.782Zm-8.681-5.4c.152,0,.273.03.395.03h3.066a3.807,3.807,0,0,0,.82-.09,1.829,1.829,0,0,0,1.487-1.609,3.15,3.15,0,0,0,0-1.3,2.141,2.141,0,0,0-.7-1.275,2.255,2.255,0,0,0-1.548-.546c-1.062-.03-2.155,0-3.218,0-.091,0-.213.061-.3.061C786.97-4169.435,787-4165.61,787.061-4165.185Z" transform="translate(-82.589 -31.62)" fill="#161616"/><path id="Path_194" data-name="Path 194" d="M675.9-4060.579c0-.121.03-.212.03-.3v-11.929a1.77,1.77,0,0,1,.061-.7,1.215,1.215,0,0,1,.577-.061h6.587a.9.9,0,0,1,.486.061.885.885,0,0,1,.061.273v24.83a1.667,1.667,0,0,1-.061.667.972.972,0,0,1-.516.061h-6.981a.432.432,0,0,1-.364-.182c-.091-.152-.212-.334-.3-.486l-5.828-9.2c-.546-.88-1.123-1.761-1.67-2.641l-.182-.273c-.121,0-.121.061-.121.122v12.566a1.316,1.316,0,0,1-.3.061h-7.406a1.333,1.333,0,0,1-.061-.3v-25.527a1.317,1.317,0,0,1,.3-.061h6.981c.516,0,.516,0,.759.425.486.79,1,1.579,1.487,2.368.88,1.427,1.791,2.854,2.671,4.28,1.153,1.852,2.276,3.673,3.43,5.524A1.133,1.133,0,0,0,675.9-4060.579Z" transform="translate(-0.139 -104.051)" fill="#161616"/><path id="Path_195" data-name="Path 195" d="M997.89-4148.776a.449.449,0,0,1,0-.395c.395-1.093.789-2.186,1.153-3.249.243-.637.425-1.3.668-1.973.334-.941.7-1.912,1.032-2.854.516-1.457,1-2.914,1.518-4.371l.546-1.548c.334-.911.638-1.822.941-2.732.395-1.153.82-2.307,1.214-3.46.425-1.154.85-2.307,1.214-3.491.243-.789.577-1.579.82-2.368.182-.577.395-1.153.577-1.73a.524.524,0,0,1,.395-.395,4.575,4.575,0,0,1,.607-.061h5.919c.85,0,1.7,0,2.55.03h.152c.3-.03.455.122.577.395.364,1.062.759,2.125,1.123,3.187s.759,2.125,1.123,3.187l.455,1.366c.243.729.516,1.457.759,2.186.182.486.334.971.516,1.458.243.7.516,1.4.759,2.094s.455,1.4.7,2.094c.152.425.334.881.486,1.306.3.88.607,1.791.911,2.67s.637,1.792.941,2.672c.3.85.607,1.73.911,2.581.243.7.516,1.427.759,2.124.121.334.213.667.334,1,.061.213-.03.3-.243.3h-7.528c-.243,0-.516-.03-.759-.03a.426.426,0,0,1-.425-.364c-.243-.819-.516-1.608-.759-2.429-.122-.424-.273-.82-.395-1.245a.319.319,0,0,0-.3-.243,7.463,7.463,0,0,0-.82-.061h-7.255a6.408,6.408,0,0,0-.759.061.266.266,0,0,0-.273.212,2.668,2.668,0,0,0-.152.455c-.334,1.032-.638,2.065-.941,3.066,0,.062-.03.092-.061.152a.466.466,0,0,1-.486.395c-.243,0-.516.03-.759.03H998.8A2.969,2.969,0,0,1,997.89-4148.776Zm14.813-18.94a1.832,1.832,0,0,0-.273.546c-.121.364-.243.728-.334,1.092-.364,1.154-.759,2.308-1.093,3.491-.212.729-.455,1.457-.7,2.186-.212.607,0,.637.486.637h3.369a6.361,6.361,0,0,0,.759-.03,1.159,1.159,0,0,0,.3-.091,7.436,7.436,0,0,0-.334-1.245l-.455-1.457c-.182-.607-.395-1.184-.577-1.791-.243-.76-.455-1.519-.668-2.247a7.076,7.076,0,0,0-.3-.85A2.454,2.454,0,0,1,1012.7-4167.716Z" transform="translate(-235.502 -31.759)" fill="#fbbe19"/><path id="Path_196" data-name="Path 196" d="M919.868-4149c-.455.061-10.745.061-11.14,0l-.03-.03-.03-.031c-.091-.3-.212-.606-.3-.91-2.944-9.167-5.919-18.334-8.863-27.5v-.091a.231.231,0,0,1,.03-.09.573.573,0,0,1,.243-.061h8.256c.607,0,.577-.061.759.546.637,2.247,1.305,4.493,1.943,6.739l1.457,5.1c.577,2,1.153,4.037,1.76,6.04.091.3.152.577.243.88.03.062.061.122.152.273.3-.759.455-1.518.668-2.216.213-.729.425-1.457.607-2.186.212-.729.425-1.457.607-2.186l.637-2.186c.212-.7.395-1.426.607-2.124.213-.729.425-1.458.607-2.186l.637-2.186c.213-.729.395-1.457.607-2.185s.395-1.457.637-2.125a.238.238,0,0,0,.091-.06l.03-.03h8.8a.112.112,0,0,1,.091.03l.03.03c.091.091.03.213,0,.3-.182.546-.334,1.062-.516,1.609-.759,2.307-1.487,4.644-2.246,6.951l-3.46,10.745c-.911,2.854-1.852,5.736-2.762,8.59A1.49,1.49,0,0,1,919.868-4149Z" transform="translate(-167.011 -31.479)" fill="#161616"/><path id="Path_197" data-name="Path 197" d="M1194.731-4157.661a1.211,1.211,0,0,0-.061.577v7.892a1.128,1.128,0,0,1-.061.546c-.061,0-.152.062-.243.062h-7.71a1.42,1.42,0,0,1-.607-.062c-.03-.061-.03-.151-.061-.242v-27.683a1.678,1.678,0,0,1,.061-.668.439.439,0,0,1,.182-.06h11.99a13.605,13.605,0,0,1,4.128.607,9.031,9.031,0,0,1,3.551,2.125,8.587,8.587,0,0,1,2.064,3.309,11.06,11.06,0,0,1,.577,3.582,12.062,12.062,0,0,1-.425,3.308,8.664,8.664,0,0,1-3.339,4.736,9.917,9.917,0,0,1-3.825,1.608,14.428,14.428,0,0,1-3.005.3h-2.7C1195.065-4157.722,1194.883-4157.782,1194.731-4157.661Zm0-7.255c.091,0,.182.031.273.031h2.368a2.991,2.991,0,0,0,1.032-.212,1.945,1.945,0,0,0,1.275-1.458,3.952,3.952,0,0,0,.061-1.579,2.06,2.06,0,0,0-.637-1.335,2.38,2.38,0,0,0-1.366-.638,21.5,21.5,0,0,0-2.793-.061.716.716,0,0,0-.243.061.429.429,0,0,0-.061.182v4.8A.722.722,0,0,0,1194.731-4164.916Z" transform="translate(-366.535 -31.828)" fill="#161616"/><path id="Path_198" data-name="Path 198" d="M1111.37-4157.87a1.21,1.21,0,0,0-.061.576v8.408a1.57,1.57,0,0,1-.334.061h-7.649a3.879,3.879,0,0,1-.577-.03,1.335,1.335,0,0,1-.061-.3v-27.622a2.145,2.145,0,0,1,.061-.759.565.565,0,0,1,.212-.061h11.656a14.389,14.389,0,0,1,3.005.273,9.97,9.97,0,0,1,3.855,1.578,8.191,8.191,0,0,1,3.187,4.341,10.876,10.876,0,0,1,.547,3.248,13.952,13.952,0,0,1-.213,2.763,8.88,8.88,0,0,1-4.766,6.253,11.276,11.276,0,0,1-3.825,1.092q-1,.092-2,.091c-.82.03-1.669,0-2.489,0C1111.734-4157.931,1111.552-4157.992,1111.37-4157.87Zm0-7.255a.756.756,0,0,0,.243.03h2.489a2.449,2.449,0,0,0,1.032-.243,1.8,1.8,0,0,0,1.062-1.092,3.526,3.526,0,0,0,.061-2.368,1.966,1.966,0,0,0-1.305-1.366,4.721,4.721,0,0,0-.7-.152,26.622,26.622,0,0,0-2.7-.061.574.574,0,0,0-.212.061C1111.31-4169.86,1111.31-4165.61,1111.37-4165.125Z" transform="translate(-308.52 -31.619)" fill="#161616"/><path id="Path_199" data-name="Path 199" d="M1118.982-4057.572a6.537,6.537,0,0,0,.577,1.123c.182.365.395.7.577,1.063.213.364.395.729.607,1.093s.395.729.607,1.093c.182.364.395.7.577,1.062.213.364.395.729.577,1.093.212.364.394.729.607,1.093.182.364.4.7.577,1.062a8.174,8.174,0,0,1,.577,1.153.923.923,0,0,1-.243.061h-8.044a.3.3,0,0,1-.3-.182c-.122-.273-.273-.516-.4-.759-1.275-2.58-2.58-5.13-3.855-7.71a1.068,1.068,0,0,0-.243-.395c-.121.091-.091.182-.091.273v8.135a1.429,1.429,0,0,1-.061.607c-.091,0-.182.031-.273.031h-6.83a1.247,1.247,0,0,1-.577-.061c-.03-.091-.03-.182-.061-.273v-24.951a1.253,1.253,0,0,1,.061-.577c.091-.031.182-.031.273-.061h11.747a9.929,9.929,0,0,1,4.735,1.153,7.553,7.553,0,0,1,3.43,3.582,8.365,8.365,0,0,1,.759,3.309,9.039,9.039,0,0,1-.395,3.126,7.275,7.275,0,0,1-3.7,4.28,9.288,9.288,0,0,1-.971.425C1119.134-4057.663,1119.073-4057.633,1118.982-4057.572Zm-7.862-9.2a1.044,1.044,0,0,0-.03.273v3.733a.889.889,0,0,0,.061.273c.152,0,.273.03.395.03h2.641a3.682,3.682,0,0,0,.577-.03,1.709,1.709,0,0,0,1.518-1.336,2.964,2.964,0,0,0,.03-1.366,1.871,1.871,0,0,0-1.7-1.578,3.68,3.68,0,0,0-.577-.03h-2.368A2.954,2.954,0,0,1,1111.12-4066.77Z" transform="translate(-308.938 -104.052)" fill="#161616"/><path id="Path_200" data-name="Path 200" d="M1022.614-4048.4a12.44,12.44,0,0,1-10.715-5.919,13.047,13.047,0,0,1-1.73-4.371,14.76,14.76,0,0,1,0-6.1,12.744,12.744,0,0,1,3.855-6.89,12.019,12.019,0,0,1,6.435-3.126,13.125,13.125,0,0,1,6.223.455,12.179,12.179,0,0,1,6.981,5.768,13.9,13.9,0,0,1,1.639,5.494,14.456,14.456,0,0,1-.516,5.464,12.5,12.5,0,0,1-3.4,5.707,12.332,12.332,0,0,1-5.676,3.127A12.907,12.907,0,0,1,1022.614-4048.4Zm4.917-13.325c-.03-.456-.061-.941-.122-1.4a5.171,5.171,0,0,0-.7-2.125,4.248,4.248,0,0,0-2.611-2.064,5.175,5.175,0,0,0-2.883,0,4.242,4.242,0,0,0-2.094,1.305,4.8,4.8,0,0,0-1.032,2.034,9.051,9.051,0,0,0-.182,3.612,6.064,6.064,0,0,0,.941,2.489,4.119,4.119,0,0,0,1.973,1.548,5.186,5.186,0,0,0,2.034.3,4.415,4.415,0,0,0,4.128-2.792A8.556,8.556,0,0,0,1027.531-4061.729Z" transform="translate(-243.865 -103.082)" fill="#161616"/><path id="Path_201" data-name="Path 201" d="M1188.453-4063a2.29,2.29,0,0,0,.243-.334c.577-.88,1.154-1.73,1.7-2.61,1.609-2.459,3.187-4.887,4.8-7.346a1.319,1.319,0,0,0,.121-.212.432.432,0,0,1,.364-.183h8.469c-.03.122,0,.183-.061.243-.182.273-.364.546-.547.789-1.578,2.277-3.157,4.553-4.735,6.861-.941,1.366-1.882,2.732-2.823,4.067-.091.121-.182.273-.273.425.334.607.729,1.123,1.123,1.7.364.546.759,1.123,1.123,1.669s.759,1.123,1.123,1.669.759,1.124,1.123,1.67.759,1.123,1.123,1.67.759,1.123,1.123,1.669.759,1.123,1.123,1.67.759,1.093,1.093,1.639c-.091.152-.182.121-.273.121h-8.378c-.547,0-.486.06-.82-.425-1.275-2-2.58-3.977-3.855-5.98-.911-1.427-1.852-2.853-2.762-4.28-.061-.091-.121-.182-.213-.3-.03.091-.091.152-.091.182v10.169a1.343,1.343,0,0,1-.06.607,1.049,1.049,0,0,1-.516.061h-6.86c-.091,0-.182-.03-.273-.03a.773.773,0,0,1-.061-.212v-25.406a.775.775,0,0,1,.061-.212.882.882,0,0,1,.273-.061h6.829a1.255,1.255,0,0,1,.577.061c0,.121.03.212.03.334v10.229C1188.392-4063.026,1188.422-4063.026,1188.453-4063Z" transform="translate(-362.716 -103.97)" fill="#161616"/><path id="Path_202" data-name="Path 202" d="M757.32-4067.055c-.03,1-.03,1.973,0,3.005a1.128,1.128,0,0,0,.273.061h6.8a3.308,3.308,0,0,1,.546.03,1.13,1.13,0,0,1,.061.273v5.221a1.13,1.13,0,0,1-.061.546.972.972,0,0,1-.516.061H757.9a1.127,1.127,0,0,0-.546.061,3.869,3.869,0,0,0-.061.85v2.671a1.339,1.339,0,0,0,.3.061h7.74a1.338,1.338,0,0,1,.607.061.754.754,0,0,1,.091.516v5.858a1.132,1.132,0,0,1-.273.061H749.58c-.03-.122-.061-.213-.091-.3v-24.86a1.87,1.87,0,0,1,.061-.7c.091,0,.182-.031.273-.031h15.541a1.52,1.52,0,0,1,.637.061,1.243,1.243,0,0,1,.03.333v5.677c0,.121-.03.212-.03.364a.875.875,0,0,1-.273.061h-7.862A.741.741,0,0,0,757.32-4067.055Z" transform="translate(-62.531 -104.039)" fill="#161616"/><path id="Path_203" data-name="Path 203" d="M830.246-4067.106c-1.123.03-2.216,0-3.278,0H823.78a1.339,1.339,0,0,0-.061.3v18.425a1.669,1.669,0,0,1-.061.668c-.121,0-.243.031-.334.031-1.609.06-6.89.03-7.346-.031a1.079,1.079,0,0,1-.061-.3v-18.334a4.922,4.922,0,0,0-.03-.668,1.327,1.327,0,0,0-.3-.061h-6.1a.7.7,0,0,1-.091-.485v-5.464c0-.151.03-.273.03-.425.121-.031.212-.031.3-.061h19.882a1.342,1.342,0,0,1,.607.061.968.968,0,0,1,.091.576v5.373A3.193,3.193,0,0,1,830.246-4067.106Z" transform="translate(-104.252 -104.11)" fill="#161616"/><path id="Path_204" data-name="Path 204" d="M864.45-4177.42a.814.814,0,0,1,.516-.091h7.467a1.245,1.245,0,0,1,.577.061.837.837,0,0,1,.03.272v28.351a1.338,1.338,0,0,1-.3.061H864.45a1.336,1.336,0,0,1-.061-.3v-27.865A.9.9,0,0,1,864.45-4177.42Z" transform="translate(-142.554 -31.678)" fill="#161616"/></g></svg>