<svg width="30" height="30" viewBox="0 0 30 30" fill="none" xmlns="http://www.w3.org/2000/svg">
<path d="M20.0112 24.6483L15 27.5404L14.9437 22.0841C15.0563 21.9951 15.1689 21.9015 15.2811 21.8076C16.7875 22.8669 18.3683 23.8162 20.0112 24.6483Z" fill="#3E74F9"/>
<path d="M14.9999 27.5403L10.7437 25.0842C10.9405 24.9622 11.1419 24.8404 11.3438 24.709C11.5077 24.606 11.672 24.5028 11.8359 24.3904C11.981 24.2966 12.1263 24.1981 12.2717 24.0949C12.431 23.9871 12.5953 23.8748 12.7546 23.7576C13.1249 23.4998 13.4998 23.2231 13.8748 22.9324C14.0533 22.7967 14.2263 22.6608 14.3998 22.52C14.5829 22.3795 14.761 22.2341 14.9436 22.084L14.9999 27.5403Z" fill="#3E74F9"/>
<path d="M25.8608 9.32031V21.2734L20.0111 24.6483C18.3682 23.8163 16.7874 22.8669 15.281 21.8076C16.4062 20.8795 17.5451 19.8342 18.6703 18.7139C21.9186 15.4656 24.4358 12.1046 25.8608 9.32031Z" fill="#7100FF"/>
<path d="M9.90464 5.39672L9.6698 4.99092L3.90474 8.32365C3.83347 8.36475 3.77429 8.42389 3.73314 8.49513C3.692 8.56637 3.67034 8.64719 3.67036 8.72946V10.9512H4.13911L4.52775 10.6889C3.92982 9.82549 3.41658 8.90638 2.99516 7.94439C2.68986 7.2842 2.51469 6.57135 2.47926 5.84486C2.45627 5.4552 2.57405 5.07025 2.81114 4.76017L2.80976 4.76154C2.97321 4.57486 3.18357 4.43524 3.41908 4.35713C3.74138 4.25073 4.07951 4.20025 4.41883 4.2079C5.68958 4.20355 7.56092 4.76225 9.69776 5.8174L9.90467 5.39671L9.66982 4.99091L9.90467 5.39671L10.1116 4.97624C7.89598 3.8893 5.94453 3.27498 4.41881 3.2704C3.97131 3.26238 3.52579 3.3316 3.10182 3.47502C2.71121 3.60871 2.36327 3.84407 2.09383 4.15688L2.09245 4.15825C1.7139 4.63694 1.51862 5.23501 1.54176 5.84485C1.57595 6.69616 1.77608 7.5326 2.1309 8.30719C2.5758 9.32592 3.11819 10.2992 3.75048 11.2135C3.80666 11.2967 3.88805 11.3597 3.98269 11.3931C4.07732 11.4266 4.1802 11.4288 4.27618 11.3995C4.37217 11.3701 4.4562 11.3107 4.51591 11.23C4.57561 11.1493 4.60785 11.0516 4.60787 10.9512V9.00001L10.139 5.80253C10.2125 5.76006 10.2731 5.69843 10.3143 5.62421C10.3555 5.55 10.3758 5.466 10.3729 5.38116C10.3701 5.29633 10.3443 5.21385 10.2983 5.14254C10.2523 5.07123 10.1877 5.01376 10.1116 4.97626L9.90465 5.39673L9.90464 5.39672Z" fill="#140625"/>
<path d="M27.5482 25.6232L27.1893 25.3218C27.0255 25.5106 26.8139 25.6519 26.5768 25.731C26.2535 25.8385 25.914 25.8894 25.5734 25.8816C24.2875 25.8862 22.3892 25.3126 20.2203 24.2286L20.0111 24.6481L20.2455 25.0542L26.0952 21.6793C26.1665 21.6382 26.2257 21.579 26.2668 21.5077C26.308 21.4364 26.3296 21.3556 26.3296 21.2733V19.1357H25.8608L25.4722 19.3978C26.07 20.2613 26.5832 21.1804 27.0048 22.1423C27.31 22.8021 27.4852 23.5145 27.5207 24.2405C27.5436 24.6289 27.426 25.0127 27.1893 25.3215V25.3217L27.5482 25.6232L27.9071 25.9248C28.2858 25.4471 28.4813 24.8497 28.4582 24.2405C28.4237 23.3897 28.2236 22.5538 27.8691 21.7796C27.4242 20.761 26.8818 19.7879 26.2495 18.8737C26.1934 18.7905 26.112 18.7274 26.0174 18.6939C25.9227 18.6604 25.8198 18.6581 25.7238 18.6875C25.6278 18.7168 25.5437 18.7762 25.484 18.8569C25.4243 18.9376 25.3921 19.0354 25.3921 19.1358V21.0025L19.7767 24.2421C19.7033 24.2844 19.6427 24.3459 19.6015 24.4199C19.5602 24.4939 19.5397 24.5777 19.5423 24.6624C19.5449 24.7471 19.5704 24.8296 19.6161 24.9009C19.6618 24.9723 19.726 25.0299 19.8019 25.0677C22.0504 26.184 24.0289 26.8145 25.5734 26.8191C26.0228 26.8272 26.4703 26.7573 26.8958 26.6124C27.288 26.4771 27.6371 26.2397 27.9071 25.9246V25.9249L27.5482 25.6232Z" fill="#140625"/>
<path d="M14.9438 22.084C14.7611 22.2341 14.583 22.3795 14.3999 22.52C14.2264 22.6608 14.0534 22.7967 13.8749 22.9325C13.5 23.2231 13.1251 23.4998 12.7547 23.7576C12.5954 23.8748 12.4311 23.9871 12.2718 24.0949C12.1267 24.1982 11.9814 24.2967 11.836 24.3904C11.6721 24.5028 11.5078 24.6061 11.3439 24.709C11.142 24.8404 10.9406 24.9622 10.7438 25.0842L4.13916 21.2733V10.9512C5.21936 12.5149 6.42824 13.9857 7.75318 15.3482C8.98601 16.6397 10.288 17.8633 11.6533 19.0138C11.9252 19.2436 12.2017 19.4732 12.4782 19.6936L12.5624 19.7638C12.8064 19.9607 13.0545 20.1575 13.3031 20.345C13.5659 20.5514 13.8236 20.7483 14.0859 20.9451C14.372 21.1561 14.6576 21.3623 14.9392 21.5638L14.9437 22.084L14.9438 22.084Z" fill="#7100FF"/>
<path d="M15.2811 21.8075L14.9803 21.4479C14.8691 21.541 14.7592 21.6321 14.653 21.7161L14.9437 22.0839L15.4124 22.0798L15.4079 21.5596L14.9391 21.5637L14.658 21.9386C14.7821 22.0318 14.903 22.1137 15.0096 22.1897L15.2811 21.8075L14.9803 21.4479L15.2811 21.8075L15.5525 21.4252C15.4349 21.3419 15.3213 21.2646 15.2202 21.1888C15.1503 21.1363 15.0671 21.1045 14.98 21.0968C14.893 21.0891 14.8055 21.1059 14.7275 21.1454C14.6495 21.1848 14.5841 21.2452 14.5387 21.3199C14.4932 21.3946 14.4696 21.4804 14.4704 21.5678L14.4749 22.0881C14.4757 22.1758 14.5011 22.2615 14.5482 22.3355C14.5953 22.4095 14.6622 22.4688 14.7413 22.5067C14.8204 22.5445 14.9085 22.5595 14.9957 22.5498C15.0828 22.5401 15.1655 22.5061 15.2344 22.4518C15.3529 22.3577 15.4687 22.2613 15.5818 22.167C15.6368 22.121 15.6805 22.063 15.7095 21.9974C15.7386 21.9319 15.7522 21.8606 15.7494 21.7889C15.7465 21.7173 15.7273 21.6473 15.6932 21.5842C15.6591 21.5212 15.6109 21.4668 15.5525 21.4252L15.2811 21.8075Z" fill="#140625"/>
<path d="M10.7437 25.0843L10.5015 24.6828C9.51905 25.2894 8.48399 25.8062 7.40885 26.2271C6.65549 26.5379 5.85368 26.715 5.03948 26.7503C4.77191 26.7553 4.50532 26.7165 4.25029 26.6354C4.05302 26.572 3.87325 26.4634 3.72524 26.3184C3.57965 26.1698 3.47044 25.9894 3.40617 25.7915C3.32479 25.5368 3.28597 25.2704 3.29127 25.003C3.2867 24.0214 3.72158 22.6071 4.55653 20.9804L4.13904 20.7671H3.67029V21.2734C3.67027 21.3557 3.69192 21.4365 3.73306 21.5078C3.77421 21.5791 3.83339 21.6383 3.90467 21.6794L10.5093 25.4903L10.7437 25.0843L10.5015 24.6828L10.7437 25.0843L10.978 24.6782L4.60779 21.0026V20.7671C4.60779 20.6619 4.57236 20.5597 4.50723 20.477C4.44209 20.3943 4.35103 20.336 4.2487 20.3114C4.14638 20.2867 4.03874 20.2972 3.94312 20.3412C3.8475 20.3852 3.76946 20.4601 3.72156 20.5538C2.85318 22.2592 2.35788 23.7636 2.35375 25.003C2.34836 25.3737 2.40436 25.7427 2.51948 26.095C2.62765 26.429 2.81351 26.7325 3.06179 26.9807C3.31008 27.2288 3.61369 27.4145 3.9477 27.5226C4.3001 27.6371 4.66895 27.6929 5.03947 27.6878C5.96653 27.6534 6.88029 27.4559 7.7389 27.1046C8.86766 26.6637 9.95436 26.1218 10.9858 25.4857C11.0556 25.4436 11.1132 25.384 11.153 25.3128C11.1927 25.2416 11.2132 25.1613 11.2124 25.0798C11.2116 24.9982 11.1896 24.9183 11.1485 24.8479C11.1074 24.7775 11.0486 24.719 10.978 24.6782L10.7437 25.0843V25.0843Z" fill="#140625"/>
<path d="M25.8609 8.72964L14.8734 15.0437L4.13904 8.72964L9.90466 5.39683L15 2.45776L19.3265 4.96089L25.8609 8.72964Z" fill="#7100FF"/>
<path d="M25.8609 8.72949V9.32023C24.4359 12.1046 21.9186 15.4655 18.6703 18.7138C17.5452 19.8342 16.4062 20.8795 15.2811 21.8076C15.1689 21.7279 15.0517 21.6483 14.9391 21.5638L14.8737 15.0437L25.8609 8.72949Z" fill="#7100FF"/>
<path d="M14.9391 21.5638C14.6576 21.3624 14.3719 21.1562 14.0858 20.9451C13.8235 20.7483 13.5658 20.5515 13.303 20.345C13.0545 20.1576 12.8064 19.9607 12.5624 19.7639L12.4782 19.6936C12.2017 19.4732 11.9252 19.2436 11.6533 19.0138C10.2879 17.8634 8.98594 16.6398 7.7531 15.3483C6.42814 13.9858 5.21925 12.515 4.13904 10.9513V8.72949L14.8736 15.0437L14.9391 21.5638Z" fill="#7100FF"/>
<path d="M25.8609 9.32015H26.3297V8.72941C26.3296 8.64712 26.3079 8.56629 26.2668 8.49503C26.2257 8.42376 26.1665 8.36457 26.0953 8.32337L19.5612 4.55462L19.3268 4.96066L19.5676 5.3628C20.5374 4.76849 21.5585 4.26217 22.6186 3.84989C23.3637 3.54465 24.156 3.37087 24.9605 3.33626C25.2279 3.3313 25.4943 3.37011 25.7492 3.45116C25.9466 3.51487 26.1265 3.62355 26.2747 3.76862L26.2757 3.76953C26.421 3.91723 26.5299 4.09677 26.5938 4.29391C26.6752 4.54847 26.714 4.81473 26.7087 5.08195C26.7133 6.06408 26.2784 7.48017 25.4434 9.10683L25.8609 9.32015L26.2784 9.53347C27.1468 7.82807 27.6421 6.32157 27.6462 5.08195C27.6516 4.71137 27.5957 4.34245 27.4805 3.99018C27.3702 3.65697 27.184 3.35391 26.9367 3.10486L26.9376 3.1058C26.6881 2.85933 26.3849 2.6739 26.0518 2.56401C25.6996 2.44944 25.3309 2.39362 24.9605 2.39876C24.044 2.43239 23.1404 2.62628 22.2908 2.97165C21.1773 3.40379 20.1047 3.93486 19.086 4.55849C19.016 4.60044 18.9581 4.65996 18.9181 4.73115C18.8781 4.80235 18.8574 4.88276 18.858 4.96442C18.8587 5.04607 18.8807 5.12614 18.9218 5.1967C18.9629 5.26725 19.0217 5.32584 19.0924 5.36667L25.3922 9.00017V9.32015C25.3922 9.4254 25.4276 9.52758 25.4927 9.61025C25.5579 9.69292 25.6489 9.75127 25.7513 9.7759C25.8536 9.80053 25.9612 9.79001 26.0568 9.74603C26.1525 9.70206 26.2305 9.62718 26.2784 9.53347L25.8609 9.32015Z" fill="#140625"/>
<path d="M14.9855 26.1013L15 27.539L14.9855 26.1013Z" fill="#B67CFF"/>
<path d="M11.922 24.3345L11.836 24.3906C11.6721 24.5029 11.5077 24.6062 11.3439 24.7092C11.2766 24.7529 11.2094 24.7957 11.1425 24.8376C11.187 24.9096 11.2112 24.9923 11.2125 25.077C11.2137 25.1617 11.1921 25.2451 11.1498 25.3184L13.3919 26.6116L13.3773 25.174L13.2198 25.0834L11.922 24.3345V24.3345Z" fill="#B67CFF"/>
<path d="M4.14055 8.729H4.13855L4.13955 8.73L4.14055 8.729Z" fill="#050404"/>
<path d="M4.14099 10.9539V20.2982L4.24902 20.3112C4.3513 20.3359 4.44231 20.3943 4.50741 20.4769C4.57251 20.5596 4.60791 20.6617 4.60791 20.7669V21.0025L10.9782 24.6781C11.0452 24.7168 11.1017 24.7716 11.1425 24.8374C11.2093 24.7955 11.2765 24.7527 11.3439 24.709C11.5078 24.606 11.6721 24.5027 11.836 24.3904L11.9221 24.3343L6.6184 21.2732V14.1168C5.72675 13.1157 4.89929 12.0593 4.14099 10.9539Z" fill="#B67CFF"/>
<path d="M4.14099 20.2983V21.2734L10.7424 25.0833L10.7438 25.084L10.5016 24.6828L10.7438 25.084V25.0843L10.9781 24.6782L10.7438 25.0843L11.1498 25.3184C11.1806 25.2651 11.2006 25.2063 11.2086 25.1453C11.2166 25.0842 11.2126 25.0222 11.1966 24.9628C11.1807 24.9033 11.1532 24.8476 11.1157 24.7988C11.0782 24.7499 11.0315 24.709 10.9781 24.6782L4.6079 21.0026V20.7671C4.6079 20.6619 4.5725 20.5597 4.5074 20.4771C4.4423 20.3944 4.3513 20.3361 4.24901 20.3114L4.14099 20.2983Z" fill="#050404"/>
<path d="M13.8445 3.12524L9.90607 5.39681L4.14232 8.72915H4.13951L4.13904 8.72962L6.61826 10.1879V8.73056L6.61591 8.72915H6.61966L12.3834 5.39681L15.0815 3.84056L13.8445 3.12524Z" fill="#B67CFF"/>
<path d="M4.14099 9.67114V10.954C4.89929 12.0595 5.72675 13.1159 6.6184 14.1169V11.1284L4.14099 9.67114Z" fill="#B67CFF"/>
<path d="M13.3919 26.6116V26.6123L15 27.5404V27.5391L13.3919 26.6116ZM14.5798 22.3796C14.5198 22.427 14.4603 22.4739 14.3999 22.5202C14.2264 22.6609 14.0534 22.7969 13.8748 22.9326C13.7023 23.0663 13.53 23.1968 13.358 23.3242L13.3773 25.1741L14.9854 26.1017L14.9488 22.5531H14.9437C14.874 22.553 14.8052 22.5373 14.7422 22.5073C14.6793 22.4773 14.6238 22.4337 14.5798 22.3796" fill="#B67CFF"/>
<path d="M13.3282 20.3647L13.3401 21.5639L13.3452 22.0841L13.358 23.3242C13.5301 23.1969 13.7024 23.0664 13.8748 22.9326C14.0533 22.7968 14.2264 22.6609 14.3999 22.5201C14.4603 22.4739 14.5198 22.427 14.5798 22.3796C14.5127 22.2972 14.4757 22.1945 14.4749 22.0882L14.4704 21.568C14.4695 21.4684 14.5004 21.3711 14.5587 21.2903C14.4017 21.1768 14.2441 21.0618 14.0858 20.9452C13.8318 20.7545 13.5823 20.5641 13.3282 20.3647Z" fill="#B67CFF"/>
<path d="M14.5587 21.2903C14.5004 21.3711 14.4695 21.4683 14.4704 21.5679L14.4749 22.0882C14.4762 22.2117 14.5261 22.3298 14.6138 22.4169C14.7016 22.5039 14.8201 22.5528 14.9437 22.553H14.9487L14.9437 22.084L14.9391 21.5638C14.8128 21.4736 14.686 21.3824 14.5587 21.2903Z" fill="#0E0C0C"/>
<path d="M6.61841 10.1877V11.1284L13.2748 15.0437L13.3283 20.3647C13.5824 20.5641 13.8318 20.7545 14.0859 20.9451C14.2438 21.0616 14.4015 21.1767 14.5588 21.2903C14.686 21.3823 14.8128 21.4735 14.9392 21.5638L14.8737 15.0437L6.61841 10.1877ZM4.13916 8.72949V9.66997L4.14099 9.67111V8.73064L4.13916 8.72949Z" fill="#B67CFF"/>
<path d="M13.3772 25.1738L13.3917 26.6115L15 27.5391L14.9855 26.1015L13.3772 25.1738Z" fill="#B67CFF"/>
<path d="M4.13904 8.72949L4.14091 8.73043V9.67121L6.61826 11.1286V10.95V10.1878L4.13904 8.72949Z" fill="#B67CFF"/>
<path d="M18.6763 23.9417L18.0606 24.2969L14.9849 26.0721L14.9853 26.1016L16.2382 26.8244L15 27.539V27.5404L19.6055 24.8824C19.5661 24.815 19.5444 24.7387 19.5423 24.6607C19.5402 24.5827 19.5579 24.5054 19.5936 24.436C19.2924 24.2799 18.9866 24.1151 18.6763 23.9417H18.6763Z" fill="#B67CFF"/>
<path d="M25.6425 9.73511C25.1182 10.6966 24.5401 11.6277 23.9108 12.524V20.9217L18.6763 23.9416C18.9862 24.115 19.292 24.2798 19.5936 24.4359C19.6345 24.3549 19.6981 24.2875 19.7767 24.2421L25.3921 21.0025V19.1357C25.3922 19.0114 25.4416 18.8922 25.5295 18.8043C25.6174 18.7164 25.7366 18.6669 25.8609 18.6667V9.78889L25.751 9.77585L25.6425 9.73511H25.6425Z" fill="#B67CFF"/>
<path d="M25.8609 18.6667C25.7366 18.6669 25.6174 18.7164 25.5295 18.8043C25.4417 18.8922 25.3922 19.0114 25.3921 19.1357V21.0025L19.7767 24.2421C19.7233 24.2727 19.6765 24.3137 19.6389 24.3625C19.6014 24.4113 19.5739 24.4671 19.558 24.5266C19.5421 24.5861 19.5381 24.6481 19.5462 24.7092C19.5544 24.7702 19.5746 24.829 19.6055 24.8823L20.0111 24.6481L25.8609 21.2733V18.6667Z" fill="#0E0C0C"/>
<path d="M25.3908 8.99951L23.9109 9.85004V12.5241C24.5401 11.6277 25.1183 10.6966 25.6426 9.73514C25.5671 9.6953 25.5038 9.6356 25.4597 9.56248C25.4156 9.48935 25.3922 9.40558 25.3922 9.32017V9.0002L25.3908 8.99951Z" fill="#B67CFF"/>
<path d="M25.8609 8.72949L25.3907 8.99957L25.3921 9.00025V9.32023C25.3922 9.40563 25.4155 9.48941 25.4596 9.56253C25.5037 9.63565 25.567 9.69535 25.6425 9.73519L25.751 9.77593L25.8609 9.78898V8.72949H25.8609Z" fill="#0E0C0C"/>
<path d="M14.9855 26.1013L15 27.539L16.2384 26.8241L14.9855 26.1013Z" fill="#B67CFF"/>
<path d="M15 2.45776L13.8437 3.12471L13.8446 3.12517L15 2.45843L16.2373 3.17392L15.0815 3.84065L17.0173 4.96079L23.5519 8.72955L13.7324 14.3724L14.8736 15.0437L23.9108 9.85017L25.3907 8.99964L19.0924 5.36683C19.039 5.33606 18.9923 5.29506 18.9548 5.24619C18.9173 5.19732 18.8898 5.14153 18.8739 5.08202C18.858 5.02252 18.854 4.96045 18.8621 4.89939C18.8702 4.83833 18.8903 4.77947 18.9212 4.72619L15 2.45776Z" fill="#B67CFF"/>
<path d="M18.9212 4.72607C18.8903 4.77936 18.8702 4.83822 18.8621 4.89928C18.854 4.96034 18.858 5.0224 18.8739 5.08191C18.8898 5.14142 18.9173 5.19721 18.9548 5.24608C18.9923 5.29495 19.0391 5.33595 19.0924 5.36671L25.3908 8.99952L25.8609 8.72944L19.3268 4.96069L18.9212 4.72609L18.9212 4.72607Z" fill="#0E0C0C"/>
<path d="M15 2.45801L13.8445 3.12504L15.0815 3.84035L16.2375 3.17379L15 2.45801Z" fill="#B67CFF"/>
<path d="M15 28.0077C14.9177 28.0077 14.8369 27.9861 14.7656 27.9449L10.508 25.4893C10.4373 25.4485 10.3785 25.3899 10.3374 25.3194C10.2963 25.2489 10.2743 25.1689 10.2736 25.0873C10.2729 25.0056 10.2935 24.9253 10.3334 24.8541C10.3733 24.7829 10.4311 24.7233 10.5011 24.6813C12.0752 23.72 13.5732 22.6395 14.9821 21.4493C15.0611 21.3836 15.1594 21.3455 15.262 21.341C15.3646 21.3365 15.4658 21.3658 15.5502 21.4243C17.0371 22.4705 18.5979 23.4075 20.2203 24.2279C20.2963 24.2656 20.3606 24.3232 20.4063 24.3945C20.4521 24.4659 20.4777 24.5483 20.4803 24.633C20.483 24.7178 20.4626 24.8016 20.4213 24.8757C20.38 24.9497 20.3194 25.0112 20.246 25.0535L15.2344 27.9449C15.1631 27.9861 15.0823 28.0077 15 28.0077ZM11.6556 25.0688L15 26.9978L19.0333 24.6706C17.7506 23.9817 16.507 23.2225 15.3081 22.3964C14.1449 23.3592 12.9252 24.2516 11.6556 25.0688Z" fill="#140625"/>
<path d="M14.8737 15.5122C14.7901 15.5123 14.7081 15.4899 14.6361 15.4474L3.90112 9.13323L4.37628 8.32527L14.8765 14.5012L25.628 8.32275L26.0949 9.13574L15.1072 15.4499C15.0361 15.4907 14.9556 15.5121 14.8737 15.5122Z" fill="#140625"/>
<path d="M15.3424 15.0386L14.4049 15.0481L14.5312 27.5462L15.4688 27.5367L15.3424 15.0386Z" fill="#140625"/>
<path d="M20.0116 25.1163C19.9391 25.1163 19.8676 25.0995 19.8028 25.0671C18.1393 24.2265 16.5391 23.2663 15.0146 22.1939C14.9553 22.1526 14.9064 22.0982 14.8716 22.0348C14.8368 21.9715 14.8171 21.9009 14.8141 21.8287C14.8111 21.7565 14.8248 21.6846 14.8542 21.6185C14.8836 21.5525 14.9278 21.4941 14.9835 21.448C16.0789 20.5426 17.2069 19.5103 18.3371 18.3803C21.4467 15.2767 23.9699 11.9828 25.4416 9.10534C25.4895 9.01166 25.5676 8.93684 25.6632 8.89291C25.7588 8.84897 25.8665 8.83849 25.9688 8.86314C26.0711 8.8878 26.1621 8.94615 26.2272 9.02881C26.2924 9.11148 26.3278 9.21365 26.3278 9.31888V21.2734C26.3278 21.3557 26.3062 21.4365 26.265 21.5078C26.2239 21.5791 26.1647 21.6383 26.0934 21.6794L20.246 25.0536C20.1747 25.0946 20.0938 25.1163 20.0116 25.1163ZM16.056 21.7716C17.32 22.6332 18.636 23.4159 19.9965 24.1152L25.3903 21.0026V11.1138C23.5779 13.9982 21.4329 16.6597 18.9995 19.0436C18.0116 20.0317 17.0233 20.9474 16.056 21.7716Z" fill="#140625"/>
<path d="M4.14098 11.4187C4.06426 11.4187 3.98871 11.3999 3.92096 11.3639C3.8532 11.3279 3.79531 11.2758 3.75234 11.2123C1.57339 7.98342 0.983785 5.47854 2.09203 4.15904C3.29732 2.73516 6.14507 3.02538 10.113 4.97614C10.1891 5.01367 10.2536 5.07115 10.2996 5.14245C10.3457 5.21375 10.3715 5.29621 10.3744 5.38103C10.3772 5.46585 10.357 5.54986 10.3159 5.62411C10.2748 5.69835 10.2143 5.76006 10.1409 5.80264L4.60973 9.00057V10.95C4.60973 11.0504 4.57747 11.1481 4.51772 11.2288C4.45798 11.3095 4.37389 11.3688 4.27786 11.3981C4.23353 11.4118 4.18738 11.4188 4.14098 11.4187ZM4.41379 4.2103C4.12221 4.18094 3.82772 4.21517 3.55064 4.31064C3.27357 4.40611 3.0205 4.56054 2.80888 4.76328C2.1552 5.54171 2.48204 7.19218 3.67222 9.30636V8.73003C3.67224 8.64783 3.69385 8.56707 3.7349 8.49585C3.77596 8.42463 3.835 8.36544 3.90613 8.32423L8.89575 5.43963C7.0876 4.62893 5.53487 4.2103 4.41379 4.2103Z" fill="#140625"/>
<path d="M25.572 26.8242C24.1077 26.8242 22.1493 26.2348 19.8028 25.0673C19.7269 25.0296 19.6626 24.972 19.6168 24.9007C19.571 24.8293 19.5455 24.7469 19.5428 24.6621C19.5402 24.5774 19.5606 24.4935 19.6019 24.4194C19.6432 24.3454 19.7037 24.2839 19.7772 24.2415L25.3903 21.0026V19.1356C25.3903 19.0353 25.4226 18.9376 25.4823 18.8569C25.542 18.7762 25.626 18.7169 25.722 18.6875C25.818 18.6581 25.9208 18.6604 26.0155 18.6938C26.1101 18.7272 26.1915 18.7902 26.2477 18.8733C28.4266 22.1026 29.0162 24.6075 27.908 25.9265C27.6105 26.2413 27.2462 26.4853 26.842 26.6407C26.4377 26.796 26.0037 26.8587 25.572 26.8242ZM21.0182 24.608C24.0632 25.9932 26.3919 26.2747 27.1902 25.3237C27.8448 24.5443 27.518 22.8936 26.3278 20.7792V21.2734C26.3278 21.3557 26.3062 21.4365 26.265 21.5078C26.2239 21.5791 26.1647 21.6383 26.0934 21.6794L21.0182 24.608Z" fill="#140625"/>
<path d="M10.7424 25.5519C10.6601 25.552 10.5793 25.5303 10.508 25.4892L3.90662 21.6793C3.83534 21.6381 3.77615 21.5789 3.73501 21.5077C3.69387 21.4364 3.67222 21.3555 3.67224 21.2732V10.95C3.67224 10.8496 3.70443 10.752 3.76407 10.6713C3.82371 10.5906 3.90766 10.5312 4.00358 10.5018C4.09949 10.4724 4.20232 10.4745 4.29693 10.5079C4.39154 10.5413 4.47294 10.6041 4.52918 10.6872C5.59297 12.2299 6.78395 13.6809 8.08966 15.025C9.31204 16.3039 10.6032 17.5152 11.9573 18.6537C13.1338 19.6472 14.3427 20.5797 15.5512 21.425C15.6102 21.4662 15.6589 21.5206 15.6935 21.5837C15.7282 21.6469 15.7478 21.7171 15.7508 21.7891C15.7539 21.861 15.7403 21.9327 15.7112 21.9986C15.682 22.0644 15.6381 22.1227 15.5828 22.1688C14.1369 23.3903 12.5993 24.499 10.9837 25.4851C10.9108 25.5288 10.8274 25.5519 10.7424 25.5519ZM4.60974 21.0025L10.7364 24.5385C12.052 23.7208 13.3129 22.8183 14.5111 21.8367C13.4478 21.072 12.3876 20.2442 11.3526 19.3701C9.97278 18.2098 8.65706 16.9754 7.41123 15.6723C6.41521 14.6391 5.47981 13.5492 4.60974 12.408V21.0025Z" fill="#140625"/>
<path d="M5.04409 27.6924C4.68278 27.7133 4.32098 27.661 3.98033 27.5388C3.63968 27.4167 3.32717 27.227 3.06151 26.9812C1.92397 25.8439 2.15331 23.6212 3.72344 20.5533C3.77139 20.4597 3.84946 20.3848 3.94508 20.3409C4.04071 20.297 4.14833 20.2865 4.25064 20.3111C4.35295 20.3358 4.44398 20.3941 4.50911 20.4768C4.57423 20.5595 4.60965 20.6616 4.60967 20.7669V21.0026L10.9767 24.6773C11.0473 24.7181 11.1061 24.7765 11.1472 24.8469C11.1883 24.9173 11.2103 24.9972 11.2111 25.0787C11.2119 25.1602 11.1914 25.2406 11.1516 25.3117C11.1119 25.3829 11.0543 25.4425 10.9845 25.4846C8.56017 26.9478 6.53457 27.6924 5.04409 27.6924ZM4.15282 21.8216C3.17595 23.9934 3.01528 25.6091 3.72435 26.3184C4.5996 27.1936 6.89666 26.718 9.80758 25.0852L4.15282 21.8216Z" fill="#140625"/>
<path d="M15.2824 22.2778C15.1862 22.2779 15.0924 22.2484 15.0137 22.1931C13.7823 21.3316 12.5504 20.3818 11.3525 19.3701C9.97269 18.2098 8.65697 16.9754 7.41114 15.6723C6.0695 14.2903 4.84576 12.7986 3.75269 11.2128C3.70013 11.1352 3.67206 11.0437 3.67212 10.95V8.73009C3.67213 8.64788 3.69375 8.56713 3.7348 8.4959C3.77585 8.42468 3.8349 8.3655 3.90603 8.32428L14.7656 2.05246C14.8369 2.01134 14.9178 1.98971 15.0002 1.98975C15.0826 1.98979 15.1635 2.0115 15.2348 2.05269L26.0934 8.32405C26.1647 8.3652 26.2238 8.42438 26.265 8.49566C26.3061 8.56694 26.3278 8.64779 26.3278 8.73009V9.31877C26.3276 9.39299 26.31 9.46613 26.2765 9.53232C24.7608 12.4947 22.1763 15.8726 18.9994 19.0435C17.8491 20.1941 16.6987 21.246 15.5813 22.1703C15.4972 22.2398 15.3915 22.2778 15.2824 22.2778ZM4.60963 10.8056C5.65394 12.3036 6.81771 13.7147 8.08955 15.025C9.31193 16.3039 10.6031 17.5153 11.9572 18.6537C13.0389 19.5672 14.1476 20.4289 15.2586 21.2185C16.2671 20.3694 17.3012 19.4159 18.3371 18.3802C21.4109 15.3123 23.9112 12.0587 25.3903 9.20526V9.00089L14.9995 2.9998L4.60963 9.00063V10.8056Z" fill="#140625"/>
<path d="M25.859 9.78752L25.7492 9.77447C25.6469 9.7498 25.5559 9.69145 25.4908 9.60879C25.4257 9.52613 25.3903 9.42398 25.3903 9.31877V9.00085L19.0938 5.36713C19.023 5.3263 18.9642 5.26771 18.9231 5.19715C18.882 5.1266 18.86 5.04653 18.8594 4.96487C18.8587 4.88321 18.8794 4.80281 18.9194 4.73161C18.9594 4.66041 19.0173 4.60089 19.0874 4.55894C22.8401 2.31041 25.6274 1.79406 26.9385 3.10441C28.076 4.24173 27.8471 6.46462 26.2761 9.53233C26.2368 9.60916 26.1771 9.67364 26.1035 9.71867C26.0299 9.76371 25.9453 9.78753 25.859 9.78752ZM20.2656 4.96086L25.876 8.19885C26.8272 6.05994 26.9778 4.46968 26.2756 3.76724C25.41 2.90161 23.1404 3.36235 20.2656 4.96086Z" fill="#140625"/>
</svg>
