<svg width="27" height="35" viewBox="0 0 27 35" fill="none" xmlns="http://www.w3.org/2000/svg">
<path d="M10.5109 3.54598C11.2548 2.49202 12.0944 1.89868 12.983 1.89868C14.2354 1.89868 15.3842 3.07254 16.3081 5.05015C17.6374 7.90202 18.5009 12.4252 18.5009 17.5161C18.5009 22.6073 17.6374 27.1305 16.3081 29.9821C15.3842 31.96 14.2354 33.1338 12.983 33.1338C11.5838 33.1338 10.3058 31.6628 9.33276 29.2382L10.5109 3.54598Z" fill="#3EE3F9"/>
<path d="M14.4228 8.63928C14.4228 9.32789 14.2185 10.001 13.8359 10.5736C13.4533 11.1461 12.9095 11.5923 12.2733 11.8558C11.6371 12.1193 10.9371 12.1882 10.2617 12.0539C9.58632 11.9195 8.96595 11.5879 8.47902 11.101C7.9921 10.6141 7.6605 9.99372 7.52615 9.31835C7.39179 8.64297 7.46072 7.94292 7.72421 7.30672C7.98771 6.67051 8.43394 6.12673 9.00647 5.74413C9.57901 5.36152 10.2521 5.15728 10.9408 5.15723C11.398 5.15721 11.8508 5.24727 12.2733 5.42225C12.6958 5.59724 13.0796 5.85372 13.403 6.17706C13.7263 6.50041 13.9828 6.88427 14.1578 7.30674C14.3328 7.72921 14.4228 8.182 14.4228 8.63928Z" fill="#3E74F9"/>
<path d="M18.8325 5.2813C20.1121 8.01834 20.9778 12.4895 20.9746 17.5163C20.9778 22.5431 20.1121 27.0145 18.8325 29.7513L19.8237 30.2132C21.2027 27.2468 22.0652 22.6718 22.0684 17.5163C22.0652 12.361 21.2027 7.78603 19.8237 4.81934L18.8325 5.2813Z" fill="#070606"/>
<path d="M25.1569 17.5162C25.1569 26.1405 22.6848 33.135 19.6331 33.135C18.3808 33.135 17.2326 31.9593 16.3081 29.9795C17.3912 27.6609 18.1624 24.2373 18.4139 20.2944C18.4577 19.567 18.4903 18.818 18.4956 18.0577C18.5009 17.8772 18.5009 17.6967 18.5009 17.5162C18.5009 12.4248 17.6374 7.9021 16.3081 5.05293C17.2326 3.07344 18.3808 1.89746 19.6331 1.89746C22.6848 1.89746 25.1569 8.89199 25.1569 17.5162V17.5162Z" fill="#3E74F9"/>
<path d="M14.8865 17.839V23.0014L15.8104 25.703L15.7014 29.7006L12.8303 30.3624L12.9339 26.3591H12.9393L11.4738 23.6575H10.4239L9.25909 26.7911L7.16985 30.2037L4.27688 29.6187L6.36611 26.2007L6.37145 26.206L7.00057 23.0014V15.8317L5.6713 16.5428L3.6098 20.3763L1.84314 19.4302L3.9158 15.5692L7.00051 13.688H14.8865L16.3685 16.9145L18.4956 18.0576C18.4903 18.8179 18.4577 19.5669 18.4139 20.2943L15.3949 18.6699L14.8865 17.839Z" fill="#3E74F9"/>
<path d="M10.9408 5.15723C10.0773 5.15745 9.24471 5.47845 8.60458 6.05793C7.96445 6.6374 7.56242 7.43402 7.47651 8.2932C7.39061 9.15237 7.62696 10.0128 8.13969 10.7076C8.65242 11.4023 9.40497 11.8818 10.2513 12.053L10.239 12.0503C10.4707 12.0028 10.6968 11.9318 10.914 11.8383C10.2884 11.5696 9.75517 11.1234 9.38051 10.5548C9.00585 9.9862 8.80616 9.32021 8.80616 8.63928C8.80616 7.95834 9.00585 7.29236 9.38051 6.72376C9.75517 6.15516 10.2884 5.70892 10.914 5.44027C10.6968 5.34679 10.4707 5.27574 10.239 5.22825C10.4699 5.18095 10.705 5.15715 10.9408 5.15723Z" fill="#3E74F9"/>
<path d="M7.30117 29.9895L7.16992 30.2039L7.30117 29.9895Z" fill="#BFBFBF"/>
<path d="M8.19206 15.8315L7.00041 16.4692V23.0016L6.37151 26.2063L6.36604 26.2008L4.27698 29.6188L7.16995 30.204L7.3012 29.9896L5.46862 29.6188L7.55768 26.2008L7.56315 26.2063L8.19206 23.0016V15.8315Z" fill="#3E74F9"/>
<path d="M3.87607 19.8811L3.60974 20.376L3.87607 19.8811Z" fill="#BFBFBF"/>
<path d="M6.69252 14.6026L7.50003 14L6.08549 14.6026L3.63112 16.1L3.91604 15.5689L1.84338 19.4304L3.60979 20.376L3.87612 19.8811L3.03502 19.4304L5.10768 15.5689L6.69252 14.6026Z" fill="#3E74F9"/>
<path d="M11.5575 23.812V23.8126L12.9394 26.3588L11.5575 23.812Z" fill="#009BB8"/>
<path d="M12.6655 23.6572H11.6155L11.5575 23.812L12.9394 26.3588H12.934L12.8301 30.3625L14.0288 30.0857L14.1256 26.3588H14.1311L12.6655 23.6572Z" fill="#3E74F9"/>
<path d="M19.6278 1.89746C18.3776 1.90093 17.2315 3.07586 16.3086 5.05159C17.1669 7.03416 17.7496 9.12492 18.0406 11.2656C18.3524 13.3344 18.5063 15.424 18.5009 17.5162C18.5009 17.627 18.5009 17.7376 18.4998 17.8484C18.494 18.6524 18.4669 19.4399 18.4186 20.2108L18.4138 20.2944C18.2757 23.0559 17.7778 25.7876 16.9329 28.4203C16.7521 28.951 16.5437 29.4719 16.3086 29.9809C17.2314 31.9569 18.3775 33.1315 19.6278 33.135C19.3936 33.1292 19.1621 33.0839 18.9431 33.001C19.1913 32.9077 19.4248 32.7789 19.6363 32.6188C18.7892 31.9084 18.1275 31.0026 17.7083 29.9795C18.7914 27.6609 19.5626 24.2373 19.8141 20.2944C19.8579 19.567 19.8905 18.818 19.8958 18.0577C19.9017 17.8772 19.9017 17.6967 19.9017 17.5162C19.9017 12.4248 19.0376 7.9021 17.7083 5.05293C18.1276 4.02998 18.7892 3.12429 19.6363 2.41389C19.4249 2.25378 19.1914 2.12508 18.9431 2.03177C19.1621 1.94864 19.3936 1.90322 19.6278 1.89746" fill="#2E57BB"/>
<path d="M10.2513 12.053C10.4708 12.0969 10.694 12.1197 10.9178 12.1211C10.694 12.1197 10.4708 12.0969 10.2513 12.053Z" fill="#00FFFF"/>
<path d="M10.9408 5.15723C11.167 5.15758 11.3928 5.17984 11.6147 5.22372C11.3742 5.27095 11.1393 5.34354 10.9141 5.44028C11.539 5.70963 12.0714 6.15613 12.4454 6.72464C12.8195 7.29315 13.0188 7.95876 13.0188 8.63928C13.0188 9.3198 12.8195 9.98542 12.4454 10.5539C12.0714 11.1224 11.539 11.5689 10.9141 11.8383C11.1393 11.935 11.3742 12.0076 11.6147 12.0549C11.3928 12.0986 11.167 12.1208 10.9408 12.1211C11.8642 12.1211 12.7499 11.7542 13.4029 11.1012C14.0558 10.4483 14.4227 9.56261 14.4227 8.63915C14.4227 7.71569 14.0558 6.83005 13.4029 6.17706C12.7499 5.52408 11.8642 5.15723 10.9408 5.15723V5.15723Z" fill="#3E74F9"/>
<path d="M10.9141 11.8383C10.6969 11.9318 10.4707 12.0028 10.239 12.0503L10.2513 12.053C10.4708 12.0969 10.694 12.1197 10.9178 12.1211H10.9408C11.167 12.1208 11.3928 12.0986 11.6147 12.0549C11.3742 12.0076 11.1393 11.935 10.9141 11.8383H10.9141ZM10.9408 5.15723C10.7051 5.15715 10.4699 5.18095 10.239 5.22826C10.4707 5.27575 10.6969 5.34679 10.9141 5.44028C11.1393 5.34354 11.3742 5.27095 11.6147 5.22372C11.3928 5.17984 11.167 5.15758 10.9408 5.15723" fill="#3E74F9"/>
<path d="M14.8864 13.688H8.19202L6.69238 14.6028H13.9716L15.4536 17.8293L16.8993 18.6059C16.9084 18.2459 16.9128 17.8827 16.9126 17.5161C16.9126 17.4125 16.9121 17.3094 16.9116 17.2064L16.3684 16.9145L14.8864 13.688H14.8864Z" fill="#3E74F9"/>
<path d="M8.19204 13.6882H7.0004L3.91603 15.5689L3.6311 16.1L6.08548 14.6026H6.69251L8.19204 13.6882Z" fill="#3E74F9"/>
<path d="M18.4186 20.2109L18.4137 20.2946L18.4186 20.2109Z" fill="#3E74F9"/>
<path d="M13.9716 18.7534V23.9159L14.896 26.6174L14.809 29.7849C15.2017 28.8865 15.5246 27.9591 15.7745 27.011L15.8103 25.7028L14.8864 23.0013V19.8031L14.4805 19.5847L13.9716 18.7534Z" fill="#3E74F9"/>
<path d="M12.983 1.89868C14.2354 1.89868 15.3842 3.07254 16.3081 5.05015L16.3086 5.05149L16.3081 5.05015C15.3842 3.07254 14.2354 1.89868 12.983 1.89868Z" fill="#3E74F9"/>
<path d="M16.87 19.4636C16.7785 22.0116 16.4112 24.5422 15.7746 27.0111L15.7014 29.7007L14.7476 29.9204L14.7193 29.9821C13.9919 31.5389 13.1241 32.5867 12.1777 32.967C12.4266 33.0726 12.6935 33.1293 12.9639 33.1339H12.9831C14.2354 33.1339 15.3842 31.96 16.3081 29.9821L16.3087 29.9808L16.3081 29.9794C16.5436 29.471 16.7522 28.9506 16.933 28.4203C17.7774 25.7874 18.2753 23.0558 18.4139 20.2943L16.87 19.4636L16.87 19.4636ZM12.9831 1.89868H12.9751C12.703 1.9034 12.4344 1.9608 12.1841 2.06771C13.1283 2.44983 13.9935 3.49685 14.7193 5.05015C16.0213 7.84408 16.8774 12.242 16.9116 17.2064L18.4956 18.0577C18.4978 17.988 18.4988 17.918 18.4999 17.8483C18.5004 17.738 18.501 17.6269 18.501 17.5161C18.5064 15.4239 18.3525 13.3344 18.0406 11.2655C17.7498 9.12517 17.1669 7.0348 16.3081 5.05283L16.3087 5.05149L16.3081 5.05015C15.3842 3.07254 14.2355 1.89868 12.9831 1.89868" fill="#3E74F9"/>
<path d="M15.7746 27.0113C15.5246 27.9594 15.2018 28.8868 14.809 29.7852L14.7476 29.9206L15.7014 29.7008L15.7746 27.0113V27.0113ZM16.9116 17.2065C16.9121 17.3096 16.9126 17.4127 16.9126 17.5163C16.9126 17.8827 16.9082 18.2459 16.8993 18.606C16.8923 18.8942 16.8826 19.1801 16.8699 19.4637L18.4139 20.2944L18.4187 20.2109C18.4603 19.5096 18.4902 18.7889 18.4956 18.0578L16.9116 17.2066" fill="#3E74F9"/>
<path d="M16.933 28.4203C16.7522 28.9506 16.5436 29.4711 16.3081 29.9795L16.3087 29.9808C16.5438 29.4718 16.7522 28.951 16.933 28.4203H16.933ZM18.4999 17.8483C18.4988 17.918 18.4978 17.988 18.4956 18.0577C18.4903 18.7888 18.4604 19.5095 18.4187 20.2107C18.4663 19.4412 18.4933 18.6537 18.4999 17.8483V17.8483ZM16.3087 5.05151L16.3081 5.05285C17.1669 7.03482 17.7498 9.12519 18.0406 11.2655C17.7497 9.12485 17.1669 7.03408 16.3087 5.05151Z" fill="#5CAEFF"/>
<path d="M19.6449 1.89746C19.8842 1.90134 20.1211 1.94651 20.345 2.03097C20.0913 2.12311 19.8525 2.25213 19.6364 2.41389C22.0054 4.17308 23.7529 10.2667 23.7529 17.5162C23.7529 24.7653 22.0054 30.8591 19.6364 32.6189C19.8526 32.7804 20.0913 32.9094 20.345 33.0015C20.1211 33.086 19.8842 33.1311 19.6449 33.135C22.6912 33.1171 25.1569 26.1296 25.1569 17.5163C25.1569 8.90299 22.6912 1.91535 19.6449 1.89746H19.6449Z" fill="#7CE8FF"/>
<path d="M19.6363 32.6189C19.4249 32.779 19.1914 32.9077 18.9431 33.001C19.1622 33.0839 19.3937 33.1292 19.6278 33.135H19.6449C19.8842 33.1311 20.1211 33.086 20.3451 33.0015C20.0914 32.9094 19.8526 32.7804 19.6364 32.6189H19.6363ZM19.6331 1.89746H19.6278C19.3936 1.90322 19.1621 1.94864 18.9431 2.03177C19.1914 2.12508 19.4249 2.25378 19.6363 2.41389C19.8525 2.25213 20.0913 2.12311 20.345 2.03097C20.1211 1.94651 19.8842 1.90134 19.6449 1.89746H19.6331" fill="#5CAEFF"/>
<path d="M10.9408 12.6679C10.1439 12.6679 9.36503 12.4316 8.70251 11.9889C8.04 11.5462 7.52364 10.917 7.21873 10.1808C6.91383 9.4446 6.83407 8.63454 6.98955 7.85304C7.14503 7.07153 7.52876 6.35368 8.09221 5.79027C8.65567 5.22685 9.37354 4.84317 10.1551 4.68774C10.9366 4.53231 11.7466 4.61212 12.4828 4.91708C13.2189 5.22203 13.8481 5.73843 14.2908 6.40098C14.7335 7.06353 14.9697 7.84246 14.9697 8.63928C14.9685 9.70743 14.5436 10.7315 13.7883 11.4868C13.033 12.242 12.0089 12.6668 10.9408 12.6679ZM10.9408 5.7041C10.3603 5.70413 9.79284 5.87629 9.3102 6.1988C8.82755 6.52132 8.45138 6.97972 8.22925 7.51602C8.00712 8.05232 7.94901 8.64245 8.06226 9.21178C8.17552 9.78111 8.45505 10.3041 8.86552 10.7145C9.27598 11.125 9.79895 11.4045 10.3683 11.5178C10.9376 11.631 11.5277 11.5729 12.064 11.3508C12.6003 11.1287 13.0587 10.7525 13.3813 10.2699C13.7038 9.78721 13.8759 9.21977 13.876 8.63928C13.8751 7.86107 13.5656 7.11496 13.0154 6.56469C12.4651 6.01441 11.719 5.70491 10.9408 5.7041Z" fill="#070606"/>
<path d="M12.8303 30.9092C12.7573 30.9092 12.685 30.8946 12.6178 30.8662C12.5505 30.8379 12.4896 30.7963 12.4386 30.744C12.3876 30.6917 12.3477 30.6298 12.321 30.5618C12.2944 30.4938 12.2816 30.4212 12.2835 30.3482L12.3839 26.4819L11.1486 24.2044H10.8041L9.77179 26.9818L9.72531 27.0766L7.63607 30.4892C7.57802 30.5853 7.49156 30.661 7.38862 30.7059C7.28569 30.7508 7.17136 30.7626 7.06143 30.7397L4.16846 30.1546C4.08226 30.1372 4.00152 30.0993 3.93309 30.0441C3.86467 29.9889 3.81057 29.918 3.7754 29.8374C3.74023 29.7568 3.72502 29.6689 3.73106 29.5812C3.7371 29.4935 3.76422 29.4085 3.81011 29.3335L5.85769 25.9836L6.45369 22.9483V16.7444L6.07505 16.9471L4.09153 20.6353C4.02281 20.7627 3.90639 20.8578 3.76775 20.8996C3.62912 20.9414 3.47957 20.9265 3.35186 20.8583L1.5852 19.9122C1.52183 19.8783 1.46577 19.8322 1.42022 19.7766C1.37467 19.721 1.34053 19.657 1.31975 19.5882C1.29897 19.5194 1.29195 19.4472 1.2991 19.3757C1.30625 19.3041 1.32743 19.2347 1.36143 19.1714L3.43408 15.3105C3.48 15.2247 3.54804 15.1528 3.63115 15.1022L6.71587 13.221C6.80164 13.1688 6.90011 13.1411 7.00052 13.1411H14.8865C14.9911 13.1411 15.0936 13.1711 15.1817 13.2276C15.2698 13.2841 15.3399 13.3646 15.3837 13.4597L16.7888 16.5196L18.7546 17.5759C18.8423 17.623 18.9154 17.6931 18.9661 17.7786C19.0168 17.8642 19.0432 17.9619 19.0425 18.0614C19.0377 18.7506 19.0115 19.4705 18.9597 20.3271C18.9543 20.4188 18.9258 20.5076 18.877 20.5854C18.8281 20.6631 18.7605 20.7273 18.6803 20.7721C18.6001 20.8168 18.5099 20.8406 18.4181 20.8413C18.3263 20.842 18.2358 20.8195 18.1549 20.776L15.4333 19.3116V22.9106L16.3279 25.5259C16.3488 25.5877 16.3588 25.6527 16.3573 25.7179L16.2483 29.7156C16.245 29.8367 16.2015 29.9533 16.1248 30.0471C16.048 30.1408 15.9423 30.2064 15.8243 30.2336L12.9532 30.8954L12.8303 30.9092ZM13.4787 26.4493L13.3954 29.671L15.1663 29.2627L15.2608 25.7865L14.369 23.1785C14.3496 23.1215 14.3397 23.0617 14.3396 23.0015V17.839C14.3396 17.7198 14.3785 17.6039 14.4504 17.5089C14.5223 17.4139 14.6234 17.3449 14.7381 17.3126C14.8528 17.2803 14.9749 17.2863 15.0858 17.3298C15.1968 17.3733 15.2905 17.4518 15.3527 17.5535L15.7842 18.2585L17.913 19.4037C17.929 19.0449 17.9391 18.7081 17.945 18.3824L16.1095 17.3962C16.0046 17.3399 15.921 17.2509 15.8713 17.1428L14.5356 14.2349H7.15438L4.32761 15.9588L2.58391 19.2064L3.3866 19.6363L5.18958 16.2838C5.24061 16.189 5.31844 16.1113 5.41335 16.0605L6.74262 15.3494C6.82594 15.3049 6.91939 15.2827 7.01386 15.285C7.10832 15.2873 7.20057 15.314 7.28162 15.3626C7.36268 15.4112 7.42976 15.4799 7.47635 15.5621C7.52293 15.6443 7.54743 15.7372 7.54744 15.8317V23.0014L7.5373 23.1069L6.90818 26.3115C6.88976 26.4048 6.84743 26.4916 6.78534 26.5636L5.15059 29.2374L6.90337 29.592L8.7651 26.5508L9.91118 23.4669C9.95009 23.3623 10.0201 23.2721 10.1117 23.2084C10.2034 23.1448 10.3123 23.1106 10.4239 23.1107H11.4738C11.5723 23.1106 11.6689 23.1372 11.7535 23.1875C11.8381 23.2379 11.9076 23.3101 11.9545 23.3967L13.4199 26.0982C13.4782 26.2054 13.4989 26.329 13.4787 26.4493Z" fill="#070606"/>
<path d="M12.9831 33.6807C11.3761 33.6807 9.93841 32.215 8.82544 29.4419L9.84015 29.0344C10.7464 31.2921 11.892 32.587 12.9831 32.587C13.9535 32.587 14.958 31.5797 15.8125 29.7506C17.1535 26.8741 17.9541 22.3005 17.9541 17.5161C17.9541 12.732 17.1535 8.15836 15.8125 5.28112C14.958 3.45279 13.9535 2.44556 12.9831 2.44556C12.135 2.44556 11.4135 3.2154 10.9579 3.86135L10.0639 3.23062C11.1603 1.67785 12.2562 1.35181 12.9831 1.35181C14.4229 1.35181 15.7442 2.5505 16.8037 4.81864C18.2297 7.87879 19.0478 12.5067 19.0478 17.5161C19.0478 22.5259 18.2297 27.1537 16.8037 30.2131C15.7442 32.4818 14.4229 33.6807 12.9831 33.6807Z" fill="#070606"/>
<path d="M19.8237 30.2132L18.8325 29.7513C20.1741 26.8738 20.9746 22.2998 20.9746 17.5163C20.9746 12.733 20.1741 8.15906 18.8325 5.2813L19.8237 4.81934C21.2502 7.87975 22.0684 12.5076 22.0684 17.5163C22.0684 22.5252 21.2502 27.1531 19.8237 30.2132Z" fill="#070606"/>
<path d="M19.6331 33.6819C18.1939 33.6819 16.8731 32.4816 15.8125 30.2111C15.7787 30.1386 15.7612 30.0595 15.7612 29.9795C15.7612 29.8996 15.7787 29.8205 15.8125 29.748C16.8956 27.4294 17.6257 24.0598 17.8681 20.2597C17.9183 19.4247 17.9439 18.7232 17.9487 18.054C17.9541 17.8666 17.9541 17.6914 17.9541 17.5162C17.9541 12.7311 17.1535 8.15849 15.8125 5.28419C15.7787 5.21173 15.7612 5.13275 15.7612 5.05281C15.7612 4.97286 15.7787 4.89389 15.8125 4.82143C16.8732 2.55088 18.1944 1.35059 19.6331 1.35059C23.433 1.35059 25.7038 9.57 25.7038 17.5162C25.7038 25.4625 23.433 33.6819 19.6331 33.6819ZM16.9116 29.9737C17.7426 31.6621 18.7044 32.5882 19.6331 32.5882C21.9873 32.5882 24.61 26.3984 24.61 17.5163C24.61 8.63412 21.9873 2.44434 19.6331 2.44434C18.7044 2.44434 17.7431 3.37012 16.9116 5.05881C18.2713 8.11496 19.0478 12.6334 19.0478 17.5162C19.0478 17.7021 19.0478 17.8879 19.0425 18.0741C19.0377 18.7507 19.0115 19.4706 18.9597 20.3272C18.7167 24.1364 17.9915 27.5469 16.9116 29.9737Z" fill="#070606"/>
</svg>
