<svg width="32" height="34" viewBox="0 0 32 34" fill="none" xmlns="http://www.w3.org/2000/svg">
<path d="M9.85391 8.73163L9.8486 8.72632L9.09741 9.47751L9.10272 9.48282L9.85391 8.73163Z" fill="#070606"/>
<path d="M9.47648 6.32178V11.8882C4.69159 11.3762 1.40967 10.3248 1.40967 9.10516C1.40967 7.87846 4.69159 6.82711 9.47648 6.3218V6.32178Z" fill="#64BB2E"/>
<path d="M30.5903 9.10513C30.5903 10.3248 27.3084 11.3762 22.5235 11.8882V7.29216C22.5246 6.95413 22.4652 6.61863 22.3481 6.30151C27.2274 6.80008 30.5903 7.86491 30.5903 9.1051V9.10513Z" fill="#64BB2E"/>
<path d="M29.3206 27.7167C27.0415 28.8004 21.9311 29.5602 16.0023 29.5602C10.0628 29.5602 4.95757 28.8004 2.67847 27.7167L13.3725 22.4148H18.6211L29.3206 27.7167H29.3206Z" fill="#2E34BB"/>
<path d="M30.5904 9.10718V26.4473C30.5904 26.8989 30.1387 27.329 29.3206 27.7168L18.6211 22.4149H13.3725L2.67845 27.7168C1.86033 27.3289 1.40869 26.8989 1.40869 26.4473V9.10718C1.40869 10.8231 7.93775 12.2096 16.0022 12.2096C24.0561 12.2096 30.5904 10.8231 30.5904 9.10718H30.5904Z" fill="#41990B"/>
<path d="M22.5261 11.3863V11.891C20.3585 12.1098 18.181 12.2161 16.0024 12.2096C13.8237 12.2164 11.6462 12.1101 9.47852 11.891V9.10718L12.5174 11.6996L14.3449 9.86694L19.4981 11.7421L19.668 9.45787L22.5261 11.3862V11.3863Z" fill="#FFE2C0"/>
<path d="M22.5261 7.29026V11.3862L19.668 9.45779L19.4981 11.7421L14.3449 9.86686L12.5174 11.6995L9.47852 9.1071V6.13748C9.48389 5.69462 9.66093 5.27114 9.97233 4.95621C10.2837 4.64129 10.7052 4.4595 11.148 4.44915C11.5907 4.43879 12.0203 4.60067 12.346 4.9007C12.6718 5.20072 12.8685 5.61547 12.8945 6.05759V7.29026C12.8936 6.8594 12.9918 6.43409 13.1814 6.04721C13.4173 5.56508 13.7839 5.15896 14.2395 4.87523C14.6951 4.59149 15.2213 4.44157 15.758 4.44257H19.6521C20.0285 4.4383 20.402 4.50884 20.7509 4.65012C21.0998 4.79139 21.4171 5.00057 21.6845 5.26551C21.9519 5.53045 22.164 5.84586 22.3084 6.19345C22.4529 6.54103 22.5268 6.91385 22.526 7.29026L22.5261 7.29026Z" fill="#3A3A3A"/>
<path d="M21.277 17.9872C20.684 18.795 19.9085 19.4511 19.0137 19.902C18.1189 20.3529 17.1301 20.5859 16.1281 20.582H15.8719C14.8688 20.587 13.8787 20.3545 12.9827 19.9035C12.0867 19.4526 11.3101 18.7959 10.7166 17.9872H14.1266C14.3166 17.9892 14.5037 17.9402 14.6684 17.8454C14.8332 17.7506 14.9695 17.6135 15.0633 17.4482C15.1586 17.2842 15.2953 17.1482 15.4596 17.0536C15.624 16.959 15.8103 16.9092 16 16.9092C16.1896 16.9092 16.376 16.959 16.5404 17.0536C16.7047 17.1482 16.8414 17.2842 16.9367 17.4482C17.0306 17.6135 17.1669 17.7506 17.3317 17.8454C17.4965 17.9402 17.6836 17.9892 17.8736 17.9872H21.277Z" fill="#FFE2C0"/>
<path d="M22.5236 11.8883H21.9924V12.3804H22.5236L22.6388 11.8618C22.539 11.8396 22.437 11.8285 22.3348 11.8289H9.6652C9.56295 11.8285 9.46098 11.8396 9.36119 11.8618L9.47636 12.3804H10.0076V11.8883H9.47636L9.42005 12.4164C11.6061 12.6403 13.8025 12.7493 16 12.743C18.1975 12.7493 20.3938 12.6403 22.5799 12.4164L22.5236 11.8883L22.4673 11.3602C20.3186 11.5798 18.1598 11.6867 16 11.6805C13.84 11.6868 11.6813 11.5798 9.5326 11.3599C9.45851 11.352 9.38359 11.3599 9.31271 11.3828C9.24183 11.4058 9.17657 11.4434 9.12117 11.4933C9.06577 11.5431 9.02146 11.604 8.99112 11.672C8.96079 11.7401 8.94509 11.8138 8.94507 11.8883V12.3804C8.94501 12.46 8.96283 12.5385 8.99722 12.6103C9.03161 12.682 9.08169 12.7451 9.14375 12.7949C9.20582 12.8447 9.27828 12.8799 9.35578 12.8979C9.43328 12.9159 9.51383 12.9162 9.59149 12.8989L9.66516 12.8914H22.3348L22.4085 12.8989C22.4861 12.9162 22.5666 12.9158 22.6441 12.8978C22.7216 12.8797 22.794 12.8445 22.8561 12.7948C22.9181 12.745 22.9682 12.6819 23.0026 12.6102C23.037 12.5385 23.0549 12.4599 23.0549 12.3804V11.8883C23.0549 11.8138 23.0392 11.7401 23.0089 11.6721C22.9785 11.604 22.9342 11.5431 22.8788 11.4933C22.8234 11.4435 22.7581 11.4059 22.6872 11.383C22.6163 11.36 22.5414 11.3523 22.4673 11.3602L22.5236 11.8883V11.8883Z" fill="#070606"/>
<path d="M18.6212 20.083V22.415H13.3726V20.083C14.1631 20.4148 15.0122 20.5846 15.8695 20.5823H16.13C16.9854 20.5841 17.8325 20.4143 18.6212 20.083Z" fill="#FFE2C0"/>
<path d="M23.4131 13.4382V16.909C23.4133 17.0506 23.3855 17.1909 23.3314 17.3218C23.2772 17.4526 23.1978 17.5716 23.0976 17.6717C22.9975 17.7718 22.8785 17.8512 22.7476 17.9054C22.6167 17.9595 22.4764 17.9872 22.3348 17.987H17.8737C17.6836 17.989 17.4965 17.94 17.3317 17.8452C17.167 17.7504 17.0306 17.6133 16.9367 17.448C16.8414 17.284 16.7048 17.1479 16.5404 17.0533C16.376 16.9587 16.1897 16.909 16 16.909C15.8104 16.909 15.624 16.9587 15.4597 17.0533C15.2953 17.1479 15.1586 17.284 15.0633 17.448C14.9695 17.6133 14.8332 17.7504 14.6685 17.8452C14.5038 17.94 14.3167 17.989 14.1266 17.987H9.66523C9.5236 17.9872 9.38333 17.9594 9.25244 17.9053C9.12155 17.8512 9.00263 17.7718 8.90246 17.6717C8.8023 17.5715 8.72288 17.4526 8.66873 17.3217C8.61458 17.1909 8.58678 17.0506 8.58691 16.909V13.4382C8.58765 13.1855 8.67712 12.9412 8.83969 12.7478C9.00227 12.5544 9.22763 12.4242 9.4764 12.3801C9.53839 12.3664 9.60173 12.3596 9.66523 12.3599H22.3348C22.3983 12.3596 22.4617 12.3664 22.5237 12.3801C22.7724 12.4243 22.9978 12.5544 23.1604 12.7478C23.3229 12.9412 23.4124 13.1855 23.4131 13.4382H23.4131Z" fill="#2CFF0A"/>
<path d="M9.41217 6.32861C4.66205 6.83649 1.40942 7.88397 1.40942 9.10522V9.11119L1.40968 9.12128V9.12154C1.42058 9.5747 1.88932 10.004 2.71628 10.391V10.3942C4.49587 11.0973 6.36442 11.5501 8.26847 11.7397V11.4849C5.08954 10.9145 3.07036 10.0616 3.07036 9.10525C3.07036 8.14316 5.08952 7.28944 8.26846 6.72189V6.46716C8.64018 6.41787 9.01916 6.37092 9.41215 6.32864L9.41217 6.32861Z" fill="#64BB2E"/>
<path d="M22.4141 6.49731C22.4882 6.75512 22.5258 7.02205 22.5259 7.2903V11.3569C22.6192 11.3573 22.7107 11.3822 22.7913 11.4293C22.8718 11.4763 22.9386 11.5438 22.9847 11.6249C23.4016 11.5605 23.8014 11.4918 24.1842 11.4186V7.29211C24.1835 7.1188 24.1657 6.94597 24.131 6.77617C23.5928 6.67449 23.0187 6.5811 22.4141 6.49731Z" fill="#64BB2E"/>
<path d="M22.5237 8.2981V11.357H22.5258V8.41391L22.5237 8.2981Z" fill="#2B2B2B"/>
<path d="M22.5237 11.3569V11.6934C22.6796 11.6711 22.8333 11.6482 22.9849 11.6249C22.9387 11.5438 22.872 11.4764 22.7914 11.4293C22.7109 11.3823 22.6193 11.3573 22.526 11.3569H22.5237Z" fill="#050404"/>
<path d="M28.7517 27.9584C27.7776 28.3097 26.7755 28.5777 25.7561 28.7594C26.7756 28.5779 27.7777 28.3099 28.7517 27.9584ZM28.7561 27.9568L28.7517 27.9584L28.7561 27.9568ZM2.7889 27.768C4.15127 28.3167 5.57553 28.6971 7.03007 28.9008C5.57562 28.6967 4.15142 28.3163 2.7889 27.768ZM2.47812 10.2761L2.47865 10.2764L2.47812 10.2761ZM1.40967 9.10498V9.13898C1.42861 9.54079 1.80577 9.92417 2.47658 10.2754C1.79748 9.91925 1.41953 9.52964 1.40993 9.12134V9.12108L1.40967 9.11098V9.10498Z" fill="#BFBFBF"/>
<path d="M1.40991 9.12146C1.41951 9.52976 1.79746 9.9194 2.47657 10.2755L2.47812 10.2763L2.47865 10.2766C2.5544 10.3163 2.63352 10.3552 2.71653 10.3941V10.391C1.88956 10.0039 1.42081 9.57463 1.40993 9.12146H1.40991ZM1.40967 9.11108L1.40993 9.12118L1.40967 9.11108Z" fill="#64BB2E"/>
<path d="M4.7093 26.7097L2.67847 27.7167L2.78871 27.7681C4.15123 28.3164 5.57543 28.6968 7.02989 28.9009C9.99755 29.3592 12.9971 29.5792 15.9999 29.5587C19.2694 29.5891 22.5349 29.3216 25.7559 28.7595C26.7753 28.5778 27.7775 28.3098 28.7515 27.9585L28.7559 27.9569C28.9598 27.8788 29.1479 27.7988 29.3203 27.7167L28.263 27.1927C24.6617 27.9521 20.9869 28.3074 17.3068 28.2519C11.9341 28.2519 7.24156 27.6322 4.7093 26.7097V26.7097Z" fill="#2E34BB"/>
<path d="M30.5903 26.4253C29.8411 26.7556 29.0617 27.0127 28.263 27.1929L29.3206 27.7169C30.1361 27.3286 30.5903 26.898 30.5903 26.4451V26.4254V26.4253ZM1.40944 10.3877V26.445C1.40944 26.898 1.86287 27.3286 2.67843 27.7169L4.70926 26.7099C3.44261 26.2487 2.7163 25.7115 2.7163 25.1384V11.6432C1.89608 11.2601 1.43046 10.8354 1.40942 10.3877" fill="#64BB2E"/>
<path d="M11.1838 4.44264C10.9605 4.44173 10.7392 4.48487 10.5326 4.56959C10.3259 4.65432 10.138 4.77897 9.97963 4.9364C9.82123 5.09383 9.69544 5.28096 9.60945 5.48707C9.52346 5.69318 9.47897 5.91423 9.47852 6.13756V7.26076C9.48376 6.81779 9.66075 6.39415 9.97219 6.07912C10.2836 5.76408 10.7052 5.58224 11.1481 5.57191C11.591 5.56159 12.0206 5.72359 12.3463 6.02377C12.6721 6.32395 12.8687 6.73888 12.8945 7.18112V6.05766C12.868 5.62149 12.6763 5.2118 12.3586 4.91182C12.0408 4.61185 11.6208 4.4441 11.1838 4.44266L11.1838 4.44264Z" fill="#2B2B2B"/>
<path d="M19.6521 4.44264H15.758C15.2213 4.44164 14.6951 4.59156 14.2395 4.8753C13.7839 5.15903 13.4173 5.56515 13.1814 6.04728C12.9918 6.43416 12.8936 6.85946 12.8945 7.29033V8.41378C12.8936 7.98284 12.9918 7.55745 13.1814 7.17048C13.4173 6.68838 13.7839 6.28231 14.2395 5.99862C14.6951 5.71493 15.2213 5.56506 15.758 5.56611H19.6521C20.3924 5.55755 21.1067 5.8383 21.6431 6.34857C22.1794 6.85885 22.4954 7.55834 22.5237 8.2981L22.526 8.41379V7.29033C22.526 7.02207 22.4884 6.75514 22.4142 6.49734L22.4012 6.49552C22.3826 6.43119 22.3717 6.36401 22.3483 6.3015L22.3509 6.30176C22.1436 5.7541 21.7742 5.28271 21.292 4.95052C20.8098 4.61833 20.2377 4.44115 19.6521 4.44264Z" fill="#2B2B2B"/>
<path d="M18.6328 20.0786L18.6216 20.0837L18.6328 20.0786Z" fill="#64BB2E"/>
<path d="M10.7166 17.9873C11.3974 18.9117 12.3145 19.6357 13.3717 20.0833L13.3725 20.0835V20.083C13.463 20.1214 13.5547 20.1576 13.6475 20.1917C14.3603 20.4512 15.1132 20.5833 15.8718 20.5821H16.1281C16.5369 20.5824 16.9449 20.5442 17.3465 20.4679V20.4648C17.6877 20.4004 18.0232 20.3085 18.3496 20.1901C18.4409 20.1564 18.5315 20.1207 18.6212 20.083V20.0832H18.6215L18.6324 20.0786C19.3469 19.7721 19.9987 19.3362 20.5548 18.7927H20.3709C20.0561 19.0018 19.7227 19.1816 19.3751 19.3297C18.5856 19.6609 17.7378 19.8305 16.8817 19.8285H16.6254C15.7672 19.8305 14.9172 19.6608 14.1253 19.3297C13.7763 19.1816 13.4416 19.0018 13.1253 18.7927H11.4366C11.1741 18.5453 10.9332 18.2758 10.7166 17.9873Z" fill="#BFA990"/>
<path d="M13.3726 20.083V20.0835C13.4631 20.1217 13.5547 20.1577 13.6475 20.1917C13.5549 20.1577 13.4633 20.1215 13.3726 20.083V20.083ZM18.6212 20.083C18.5315 20.1206 18.441 20.1563 18.3497 20.1902C18.421 20.1639 18.4916 20.1366 18.5616 20.1082L18.6212 20.0833V20.083" fill="#BFA990"/>
<path d="M13.6476 20.1914C14.3595 20.4514 15.1117 20.5837 15.8696 20.5821H16.13C16.5382 20.5824 16.9456 20.5442 17.3466 20.468V20.4677C16.9449 20.5439 16.537 20.5822 16.1282 20.5818H15.8719C15.1133 20.5831 14.3604 20.451 13.6475 20.1914H13.6476ZM13.3718 20.083V21.0337L13.3726 21.034V20.0833L13.3718 20.083V20.083Z" fill="#64BB2E"/>
<path d="M13.3726 20.0833V21.034C14.1642 21.3648 15.0139 21.5343 15.8719 21.5323H16.1282C16.537 21.5326 16.9449 21.4944 17.3466 21.4181V20.468C16.9455 20.5442 16.5382 20.5824 16.13 20.5821H15.8696C15.1117 20.5837 14.3595 20.4514 13.6475 20.1914C13.5549 20.1575 13.4633 20.1214 13.3726 20.0833L13.3726 20.0833ZM18.6212 20.083L18.5616 20.1079L18.6212 20.083Z" fill="#BFA990"/>
<path d="M16 15.699C15.81 15.6971 15.6228 15.7461 15.4581 15.8409C15.2934 15.9357 15.1571 16.073 15.0633 16.2383C14.9695 16.4036 14.8332 16.5407 14.6685 16.6355C14.5038 16.7303 14.3167 16.7793 14.1266 16.7774H9.66524C9.52358 16.7775 9.38329 16.7497 9.25239 16.6956C9.12149 16.6415 9.00255 16.562 8.90239 16.4619C8.80223 16.3617 8.72281 16.2428 8.66867 16.1119C8.61454 15.981 8.58675 15.8407 8.58691 15.699V16.9091C8.58678 17.0508 8.61458 17.191 8.66873 17.3219C8.72288 17.4528 8.8023 17.5717 8.90247 17.6718C9.00263 17.772 9.12155 17.8514 9.25244 17.9055C9.38333 17.9596 9.5236 17.9874 9.66524 17.9872H14.1266C14.3167 17.9891 14.5038 17.9402 14.6685 17.8454C14.8332 17.7506 14.9695 17.6134 15.0633 17.4482C15.1586 17.2842 15.2953 17.1481 15.4597 17.0535C15.624 16.9589 15.8104 16.9091 16 16.9091C16.1897 16.9091 16.376 16.9589 16.5404 17.0535C16.7048 17.1481 16.8414 17.2842 16.9367 17.4482C17.0306 17.6134 17.167 17.7506 17.3317 17.8454C17.4965 17.9402 17.6836 17.9891 17.8737 17.9872H22.3348C22.5513 17.9874 22.7628 17.9225 22.9418 17.8008C23.1208 17.6791 23.259 17.5063 23.3384 17.305C23.2678 17.4818 23.1516 17.6368 23.0018 17.7544C22.852 17.8719 22.6738 17.9479 22.4853 17.9745C22.4939 17.9248 22.499 17.8745 22.5006 17.824V16.7646C22.4457 16.7731 22.3903 16.7773 22.3348 16.7774H17.8737C17.6836 16.7793 17.4965 16.7303 17.3317 16.6355C17.167 16.5408 17.0306 16.4036 16.9367 16.2383C16.843 16.073 16.7067 15.9357 16.5419 15.8409C16.3772 15.7461 16.1901 15.6971 16 15.699Z" fill="#64BB2E"/>
<path d="M9.47635 6.32178L9.4126 6.32815L9.47635 6.32178V6.5279V9.09862V6.32178Z" fill="white"/>
<path d="M9.47632 6.52783C9.05765 6.58801 8.65506 6.6526 8.26855 6.7216V11.4847C8.51343 11.5285 8.76496 11.5707 9.02315 11.6113L9.1212 11.493C9.21883 11.4055 9.34524 11.3571 9.47632 11.3568V6.52783Z" fill="#64BB2E"/>
<path d="M9.47637 11.3569C9.34528 11.3572 9.21888 11.4057 9.12125 11.4931L9.02319 11.6114C9.17209 11.635 9.32314 11.6578 9.47635 11.6799V11.3569H9.47637Z" fill="#0E0C0C"/>
<path d="M8.26855 11.4849V11.7396C8.49112 11.7692 8.71861 11.7974 8.94896 11.8247C8.9583 11.7491 8.98359 11.6765 9.02315 11.6114C8.76479 11.571 8.51326 11.5288 8.26855 11.4849ZM9.47632 6.32178L9.41225 6.32852C9.01925 6.37081 8.64027 6.41777 8.26855 6.46704V6.72177C8.65454 6.65277 9.05713 6.58818 9.47632 6.528V6.32178Z" fill="#64BB2E"/>
<path d="M9.02316 11.6113C8.9836 11.6763 8.95831 11.749 8.94897 11.8246C9.12277 11.8448 9.29856 11.8644 9.47634 11.8834V11.6798C9.32329 11.6575 9.17224 11.6347 9.02318 11.6113H9.02316Z" fill="#0A0808"/>
<path d="M22.3508 6.30176C22.9464 6.36271 23.518 6.43189 24.0657 6.50927C24.0909 6.59693 24.1129 6.68593 24.131 6.7762C27.1365 7.34402 29.0304 8.17489 29.0304 9.10511C29.0304 10.0255 27.1591 10.8493 24.1843 11.4187V11.6765C27.0371 11.2651 29.1686 10.6441 30.0892 9.91705C30.229 9.82872 30.3468 9.70969 30.4336 9.56899C30.5205 9.4283 30.5741 9.26966 30.5904 9.10513C30.5904 7.86519 27.2286 6.80062 22.3508 6.3018V6.30176Z" fill="#64BB2E"/>
<path d="M24.1843 11.4187C23.8022 11.4916 23.4023 11.5603 22.9848 11.6249C23.0198 11.6864 23.0423 11.7542 23.0509 11.8244C23.44 11.7787 23.8178 11.7294 24.1843 11.6765V11.4187ZM22.3508 6.30176V6.30201C22.3742 6.36609 22.3953 6.4312 22.4141 6.49734C23.0188 6.58113 23.5928 6.67452 24.1311 6.7762C24.1129 6.68593 24.0909 6.59695 24.0657 6.50927C23.5187 6.43223 22.947 6.36306 22.3509 6.30176" fill="#64BB2E"/>
<path d="M22.9849 11.625C22.8334 11.6483 22.6797 11.6712 22.5237 11.6935V11.8836C22.7016 11.8647 22.8774 11.845 23.051 11.8245C23.0424 11.7543 23.0199 11.6865 22.9849 11.625Z" fill="#0A0808"/>
<path d="M22.3481 6.30151C22.3715 6.36403 22.3824 6.43121 22.4011 6.49554L22.414 6.49736C22.3951 6.43121 22.374 6.3661 22.3507 6.30203V6.30177L22.3481 6.30151Z" fill="#565656"/>
<path d="M2.71633 10.3943V11.6431C4.62243 12.3879 6.62434 12.8594 8.66254 13.0433C8.73223 12.8693 8.84582 12.7163 8.99223 12.5992C8.96105 12.5304 8.94495 12.4558 8.94503 12.3803V11.8882L8.94839 11.8288C6.21458 11.5058 4.01825 11.0028 2.71633 10.3943V10.3943ZM1.40869 9.10718V10.3557L1.40947 10.3876V9.13908L1.40869 9.10718ZM30.5904 9.10718C30.5739 9.27139 30.5202 9.4297 30.4334 9.57004C30.3465 9.71037 30.2288 9.82905 30.0892 9.91702C29.1686 10.6441 27.0371 11.2651 24.1842 11.6765V11.6799C23.818 11.7331 23.4404 11.7827 23.0514 11.8288L23.0548 11.8882V12.3803C23.0549 12.4558 23.0388 12.5304 23.0076 12.5992C23.154 12.7163 23.2676 12.8693 23.3373 13.0433C27.6752 12.5014 30.5904 11.5027 30.5904 10.3557V9.10718Z" fill="#64BB2E"/>
<path d="M8.94844 11.8286L8.94507 11.888V12.3801C8.94499 12.4556 8.96109 12.5303 8.99228 12.599C9.12878 12.4892 9.29035 12.4149 9.46257 12.3827L9.47632 12.3798V11.888C11.6437 12.1098 13.8212 12.2177 16 12.2115C18.1787 12.2177 20.3562 12.1098 22.5236 11.888V11.8834C20.357 12.1057 18.1803 12.2145 16.0023 12.2094C13.8228 12.2147 11.6445 12.1059 9.47632 11.8834V11.888C9.29811 11.8691 9.12215 11.8493 8.94844 11.8286V11.8286ZM23.0515 11.8286C22.8777 11.8491 22.7017 11.8689 22.5236 11.888V12.3793L22.5259 12.3796L22.6411 12.4076C22.7746 12.4468 22.8992 12.5118 23.0076 12.599C23.0388 12.5303 23.0549 12.4556 23.0548 12.3801V11.888L23.0515 11.8286Z" fill="#0E0C0C"/>
<path d="M22.6411 12.4077C22.7972 12.4543 22.9406 12.5358 23.0606 12.646C23.1805 12.7562 23.2738 12.8922 23.3334 13.0438L23.3373 13.0432C23.2676 12.8692 23.1541 12.7162 23.0076 12.5992C22.8992 12.512 22.7746 12.4469 22.6411 12.4077V12.4077ZM9.46259 12.3828C9.29037 12.415 9.1288 12.4893 8.99229 12.5992C8.84588 12.7162 8.73229 12.8692 8.6626 13.0432L8.66571 13.0438C8.73212 12.8754 8.83998 12.7265 8.97929 12.611C9.1186 12.4954 9.28484 12.417 9.46259 12.3828" fill="#64BB2E"/>
<path d="M2.71631 10.394V10.3943C4.01823 11.0029 6.21459 11.5058 8.94838 11.8288L8.94891 11.8246C6.21536 11.5035 4.01849 11.0016 2.71631 10.394Z" fill="#64BB2E"/>
<path d="M8.94902 11.8247L8.94849 11.8289C9.12229 11.8494 9.29825 11.8692 9.47637 11.8883V11.8836C9.29841 11.8647 9.12263 11.845 8.94901 11.8247H8.94902Z" fill="#0A0808"/>
<path d="M24.1843 11.6765C23.8181 11.7294 23.4403 11.7787 23.051 11.8244L23.0516 11.8288C23.4404 11.7826 23.818 11.733 24.1843 11.6799V11.6765H24.1843Z" fill="#64BB2E"/>
<path d="M23.051 11.8242C22.8775 11.8447 22.7017 11.8644 22.5237 11.8834V11.888C22.7019 11.8691 22.8778 11.8493 23.0516 11.8286L23.051 11.8242H23.051Z" fill="#0A0808"/>
<path d="M1.40967 9.13916V10.3876C1.43068 10.8354 1.89629 11.26 2.71654 11.6431V10.3941C2.63354 10.3552 2.55442 10.3163 2.47867 10.2766L2.47814 10.2764L2.47658 10.2756C1.80577 9.92436 1.42861 9.54097 1.40967 9.13916Z" fill="#64BB2E"/>
<path d="M9.566 12.3652L9.48047 12.3796L9.566 12.3652Z" fill="#64BB2E"/>
<path d="M22.4346 12.3652L22.5015 12.3753L22.4346 12.3652Z" fill="#64BB2E"/>
<path d="M15.3885 17.1053L15.5021 17.0312L15.3885 17.1053ZM15.9999 16.9092C15.8099 16.9072 15.6228 16.9562 15.458 17.051C15.2933 17.1458 15.157 17.2829 15.0632 17.4483C14.9694 17.6135 14.8331 17.7507 14.6684 17.8455C14.5037 17.9403 14.3166 17.9892 14.1265 17.9873H12.1331C12.4368 18.2874 12.7691 18.5572 13.1253 18.7928H14.1265C14.3166 18.7946 14.5037 18.7456 14.6684 18.6508C14.8331 18.556 14.9694 18.4188 15.0632 18.2535C15.1585 18.0895 15.2952 17.9534 15.4596 17.8588C15.6239 17.7642 15.8103 17.7144 15.9999 17.7144C16.1896 17.7144 16.3759 17.7642 16.5403 17.8588C16.7047 17.9534 16.8413 18.0895 16.9366 18.2535C17.0305 18.4188 17.1668 18.556 17.3316 18.6508C17.4964 18.7456 17.6835 18.7946 17.8736 18.7928H20.3708C20.5835 18.6517 20.7881 18.4988 20.9835 18.3347C20.8478 18.4939 20.7049 18.6466 20.5547 18.7928H20.5565C20.8191 18.5452 21.0601 18.2758 21.2769 17.9873H17.8736C17.6835 17.9893 17.4964 17.9403 17.3316 17.8455C17.1669 17.7507 17.0305 17.6136 16.9366 17.4483C16.8429 17.283 16.7065 17.1458 16.5418 17.051C16.3771 16.9562 16.19 16.9072 15.9999 16.9093" fill="white"/>
<path d="M15.5024 17.0308L15.3887 17.1051L15.5024 17.0308Z" fill="white"/>
<path d="M20.9836 18.3346C20.7881 18.4987 20.5836 18.6517 20.3709 18.7927H20.5548C20.7047 18.647 20.8477 18.4943 20.9836 18.3346ZM12.1331 17.9873H10.7166C10.9332 18.2758 11.1741 18.5453 11.4366 18.7927H13.1253C12.7692 18.5572 12.4369 18.2874 12.1331 17.9873Z" fill="white"/>
<path d="M22.5236 11.8882C20.3562 12.1099 18.1787 12.2179 16 12.2117C13.8212 12.2179 11.6437 12.1099 9.47632 11.8882V12.38L9.47839 12.3798L9.48047 12.3795L9.56581 12.3652L9.66438 12.3585H22.3347L22.4344 12.3655L22.5015 12.3756L22.5236 12.3795V11.8882V11.8882Z" fill="#0A0808"/>
<path d="M18.6216 20.0835V21.0339H18.6211V22.4152H18.6216V20.0835Z" fill="#64BB2E"/>
<path d="M18.6211 21.0337C18.2109 21.2064 17.7837 21.3352 17.3464 21.4181V22.4148H18.6211V21.0337Z" fill="white"/>
<path d="M18.3495 20.1899C18.0231 20.3083 17.6876 20.4002 17.3464 20.4646V20.4678C17.4569 20.4467 17.5665 20.4229 17.6751 20.3962C17.9035 20.3399 18.1287 20.271 18.3495 20.1899Z" fill="white"/>
<path d="M18.5617 20.1079C18.4916 20.1364 18.421 20.1638 18.3497 20.1899C18.1289 20.2709 17.9037 20.3398 17.6753 20.3961C17.9774 20.322 18.2737 20.2257 18.5617 20.1079Z" fill="white"/>
<path d="M17.6751 20.3961C17.5664 20.4228 17.4569 20.4467 17.3464 20.4677V20.468C17.4569 20.4467 17.5665 20.4227 17.6751 20.3961ZM18.6214 20.083H18.6211V21.0337H18.6214V20.083" fill="#64BB2E"/>
<path d="M18.6211 20.083L18.5615 20.1079C18.2735 20.2257 17.9772 20.322 17.6751 20.3961C17.5664 20.4228 17.4569 20.4468 17.3464 20.468V21.4181C17.7837 21.3352 18.2109 21.2064 18.6211 21.0337V20.083Z" fill="white"/>
<path d="M23.3967 13.2515C23.4076 13.3131 23.413 13.3756 23.4131 13.4382V16.909C23.4133 17.0445 23.388 17.1788 23.3384 17.3048C23.3881 17.1795 23.4136 17.0459 23.4133 16.9111V13.4367C23.4135 13.3746 23.4079 13.3126 23.3967 13.2515V13.2515Z" fill="#64BB2E"/>
<path d="M9.48055 12.3794L9.4764 12.3802V12.3799L9.46265 12.3828L9.4764 12.3802L9.48055 12.3794ZM22.5016 12.3755L22.5237 12.3802L22.6412 12.4077L22.526 12.3796L22.5237 12.3794V12.3802L22.5016 12.3755" fill="#0E0C0C"/>
<path d="M22.3347 12.3599H9.66515L9.56581 12.3651L9.48047 12.3793L9.47632 12.3801L9.46257 12.3827C9.28483 12.4168 9.11859 12.4953 8.97928 12.6109C8.83997 12.7264 8.7321 12.8753 8.6657 13.0436C8.63325 13.1219 8.61136 13.2042 8.60059 13.2883C8.65029 13.278 8.70082 13.2723 8.75156 13.2711H21.4219C21.4861 13.2727 21.5501 13.2797 21.6131 13.2921C21.793 13.3252 21.9616 13.4035 22.1029 13.5196C22.2443 13.6358 22.3537 13.7861 22.4209 13.9562C22.4741 14.0805 22.5012 14.2143 22.5005 14.3495V16.7645C22.7549 16.7252 22.9868 16.5962 23.1542 16.4007C23.3216 16.2052 23.4134 15.9562 23.413 15.6989V13.4382C23.413 13.3756 23.4075 13.3131 23.3967 13.2514C23.3836 13.18 23.3623 13.1103 23.3334 13.0436C23.2738 12.8921 23.1805 12.756 23.0605 12.6458C22.9406 12.5356 22.7972 12.4542 22.6411 12.4076L22.5236 12.3801L22.5015 12.3754L22.4343 12.3653L22.3347 12.3599L22.3347 12.3599Z" fill="#64BB2E"/>
<path d="M9.48052 12.3794L9.47839 12.3797L9.47632 12.3799V12.3802L9.48047 12.3794L9.48052 12.3794ZM22.5015 12.3755L22.5236 12.3802V12.3794L22.5015 12.3755ZM22.3347 12.3584H9.66441L9.56583 12.3651L9.66518 12.36H22.3348L22.4344 12.3654L22.3348 12.3584" fill="#0A0808"/>
<path d="M23.413 15.699C23.4133 15.9563 23.3215 16.2053 23.1541 16.4008C22.9867 16.5963 22.7548 16.7254 22.5004 16.7646V17.824C22.4989 17.8744 22.4938 17.9247 22.4851 17.9744C22.7426 17.9394 22.9786 17.812 23.1492 17.6161C23.3199 17.4201 23.4136 17.1689 23.413 16.9091V15.699Z" fill="#64BB2E"/>
<path d="M19.498 12.272C19.4361 12.272 19.3746 12.2612 19.3164 12.2401L14.482 10.4827L12.8926 12.0733C12.7981 12.1678 12.6714 12.2232 12.5379 12.2285C12.4044 12.2337 12.2737 12.1885 12.172 12.1019L9.12744 9.5058L9.81692 8.69751L12.488 10.9751L13.9694 9.49233C14.0409 9.42085 14.1314 9.37124 14.2301 9.34932C14.3288 9.32739 14.4318 9.33407 14.5268 9.36855L19.0204 11.002L19.1385 9.41706C19.1453 9.32425 19.1765 9.23487 19.2288 9.15789C19.2811 9.08091 19.3527 9.01902 19.4365 8.97843C19.5202 8.93784 19.6132 8.91997 19.706 8.92662C19.7988 8.93326 19.8883 8.96419 19.9654 9.01629L22.8222 10.9457L22.2276 11.8261L20.1299 10.4095L20.0277 11.7802C20.0178 11.9139 19.9577 12.0389 19.8594 12.1302C19.7612 12.2214 19.632 12.2721 19.498 12.272V12.272Z" fill="#070606"/>
<path d="M9.00993 6.90809L9.00343 6.8531H8.94507V6.35142L8.88696 5.85286C9.06284 5.83237 9.24078 5.81257 9.42081 5.79345C9.49486 5.78565 9.56972 5.7935 9.64053 5.81651C9.71135 5.83951 9.77654 5.87714 9.83187 5.92697C9.8872 5.9768 9.93144 6.0377 9.96171 6.10573C9.99198 6.17376 10.0076 6.24739 10.0076 6.32185V6.8531H9.50433C9.33754 6.87074 9.17274 6.88908 9.00993 6.90809Z" fill="#070606"/>
<path d="M10.0076 10.9065H8.94507V10.0056H10.0076V10.9065ZM10.0076 9.55533H8.94507V8.65444H10.0076V9.55533ZM10.0076 8.20412H8.94507V7.30322H10.0076V8.20412Z" fill="#070606"/>
<path d="M9.47619 12.4195L9.41988 12.4167C9.23961 12.3975 9.0614 12.3774 8.88525 12.3565L8.94492 11.8572V11.3571H9.00458L9.01133 11.3013C9.17371 11.3207 9.33808 11.3393 9.50444 11.3571H10.0074V11.8883C10.0074 12.0292 9.95141 12.1643 9.85179 12.2639C9.75217 12.3635 9.61706 12.4195 9.47617 12.4195H9.47619Z" fill="#070606"/>
<path d="M8.34561 12.2894C7.97492 12.2409 7.61531 12.1893 7.26677 12.1348L7.43174 11.0853C7.77103 11.1384 8.12148 11.1886 8.48308 11.2357L8.34561 12.2894ZM6.72747 12.0458C6.35342 11.9812 5.99476 11.9128 5.65148 11.8406L5.87042 10.801C6.20089 10.8705 6.54693 10.9365 6.90853 10.9989L6.72747 12.0458ZM5.11504 11.7223C4.7345 11.6336 4.37774 11.5406 4.04476 11.4432L4.34359 10.4238C4.65772 10.5156 4.99596 10.6038 5.35577 10.6873L5.11504 11.7223ZM3.5117 11.2764C3.15067 11.1577 2.79702 11.0176 2.45259 10.857L2.90862 9.8972C3.21462 10.0396 3.52879 10.1637 3.84946 10.2689L3.5117 11.2764ZM1.92804 10.5745C1.50805 10.3516 1.17157 9.9987 0.96904 9.56854L1.95631 9.17581C1.98303 9.24275 2.08783 9.42483 2.48575 9.67023L1.92804 10.5745ZM1.9545 9.03705L0.959961 8.663C1.1554 8.22688 1.48968 7.8677 1.91066 7.64148L2.47408 8.54264C2.08033 8.78853 1.97968 8.97036 1.95452 9.03702L1.9545 9.03705ZM2.89433 8.3146L2.43519 7.35638C2.77951 7.19467 3.13319 7.05365 3.49432 6.93408L3.83361 7.94107C3.51335 8.04674 3.19969 8.17148 2.89433 8.3146ZM4.32699 7.78621L4.02764 6.76674C4.35994 6.66921 4.7179 6.57556 5.09844 6.48736L5.33865 7.52243C4.97886 7.60593 4.64164 7.69386 4.32699 7.78621ZM5.85303 7.40852L5.63514 6.36886C5.97781 6.29701 6.33638 6.22879 6.71087 6.1642L6.89141 7.21113C6.53033 7.27338 6.1842 7.33918 5.85303 7.40852ZM7.41438 7.12474L7.24992 6.07521C7.59855 6.02048 7.95842 5.9692 8.32954 5.92139L8.46546 6.97506C8.10437 7.02176 7.754 7.07165 7.41436 7.12474H7.41438Z" fill="#070606"/>
<path d="M22.5237 12.4195C22.3828 12.4195 22.2477 12.3635 22.1481 12.2639C22.0484 12.1643 21.9925 12.0292 21.9924 11.8883V11.3571H22.4954C22.6617 11.3392 22.8261 11.3206 22.9885 11.3013L22.9953 11.3571H23.0549V11.8572L23.1146 12.3565C22.9385 12.3775 22.7603 12.3976 22.58 12.4167L22.5237 12.4195Z" fill="#070606"/>
<path d="M23.0549 10.9025H21.9924V9.99387H23.0549V10.9025ZM23.0549 9.5394H21.9924V8.63072H23.0549V9.5394ZM23.0549 8.17625H21.9924V7.29196L23.0549 7.26758V8.17625Z" fill="#070606"/>
<path d="M21.9608 6.90271C21.937 6.7607 21.9 6.62122 21.8503 6.48612C21.8189 6.40152 21.8096 6.31033 21.8233 6.22115C21.8369 6.13197 21.8731 6.04774 21.9283 5.97641C21.9835 5.90508 22.056 5.84899 22.139 5.81345C22.2219 5.77791 22.3125 5.76408 22.4022 5.77327C22.5823 5.79143 22.7603 5.81054 22.9363 5.8306L22.8899 6.242C22.9415 6.40062 22.9812 6.56285 23.0087 6.72734L22.8316 6.75717L22.817 6.88635C22.665 6.86923 22.5114 6.85263 22.3561 6.83655L21.9608 6.90271Z" fill="#070606"/>
<path d="M23.6767 12.2863L23.5397 11.2326C23.9044 11.1854 24.2584 11.1345 24.6015 11.0799L24.7675 12.1294C24.4155 12.1852 24.0519 12.2375 23.6767 12.2863ZM25.3114 12.0389L25.1298 10.9919C25.4951 10.9286 25.8447 10.8615 26.1786 10.7906L26.3991 11.8298C26.053 11.9032 25.6905 11.9729 25.3114 12.0389ZM26.9412 11.7092L26.6985 10.6747C27.0621 10.5893 27.4032 10.4993 27.7195 10.4049L28.023 11.4233C27.688 11.5229 27.3267 11.6186 26.9412 11.7092ZM28.5607 11.2516L28.2178 10.2462C28.5401 10.1386 28.8553 10.0108 29.1614 9.86354L29.631 10.8166C29.2838 10.9842 28.9263 11.1295 28.5607 11.2516ZM30.1599 10.519L29.5798 9.62878C29.9599 9.38105 30.0379 9.2083 30.054 9.14552L31.0838 9.40647C30.9269 9.88044 30.597 10.2777 30.1599 10.519ZM30.0278 8.9987C29.8804 8.77912 29.6766 8.60331 29.4377 8.48977L29.9731 7.57201C30.3863 7.78356 30.7316 8.10718 30.9694 8.50583L30.0278 8.9987ZM29.0019 8.26616C28.6892 8.12624 28.3688 8.00396 28.0424 7.89989L28.3708 6.88926C28.7353 7.0058 29.0931 7.14263 29.4424 7.29912L29.0019 8.26616ZM27.5407 7.74762C27.2216 7.65709 26.8797 7.57053 26.5148 7.48796L26.7493 6.4514C27.1332 6.5383 27.4938 6.6297 27.8312 6.72559L27.5407 7.74762ZM25.9942 7.3759C25.6588 7.30742 25.3083 7.24257 24.9428 7.18135L25.1187 6.13338C25.4964 6.19667 25.8589 6.26377 26.2063 6.33467L25.9942 7.3759ZM24.4139 7.09679C24.0707 7.04464 23.7162 6.99561 23.3503 6.9497L23.4826 5.89551C23.8572 5.94246 24.2207 5.9927 24.5731 6.04622L24.4139 7.09679Z" fill="#070606"/>
<path d="M16.0001 30.0896C10.7698 30.0896 0.878418 29.328 0.878418 26.445V9.10498C0.878418 8.96408 0.934389 8.82896 1.03402 8.72933C1.13365 8.6297 1.26877 8.57373 1.40967 8.57373C1.55056 8.57373 1.68569 8.6297 1.78532 8.72933C1.88495 8.82896 1.94092 8.96408 1.94092 9.10498C1.94092 9.97916 6.90323 11.6803 16.0001 11.6803C25.097 11.6803 30.0593 9.97913 30.0593 9.10498C30.0593 8.96408 30.1153 8.82896 30.2149 8.72933C30.3145 8.6297 30.4497 8.57373 30.5905 8.57373C30.7314 8.57373 30.8666 8.6297 30.9662 8.72933C31.0658 8.82896 31.1218 8.96408 31.1218 9.10498V26.445C31.1218 29.328 21.2304 30.0896 16.0001 30.0896ZM1.94092 10.5833V26.445C1.94092 27.3213 6.90323 29.0271 16.0001 29.0271C25.097 29.0271 30.0593 27.3213 30.0593 26.445V10.5833C27.366 12.2551 20.1884 12.7428 16.0001 12.7428C11.8118 12.7428 4.63426 12.2551 1.94092 10.5833Z" fill="#070606"/>
<path d="M15.9999 12.743C13.8024 12.75 11.606 12.6409 9.42001 12.4164C9.28961 12.4025 9.16897 12.3409 9.08129 12.2434C8.99361 12.1459 8.94509 12.0194 8.94507 11.8883V6.1397C8.94658 5.69797 9.07883 5.26658 9.32514 4.89989C9.57145 4.53321 9.9208 4.24765 10.3292 4.0792C10.7375 3.91076 11.1866 3.86697 11.6198 3.95335C12.053 4.03974 12.4509 4.25244 12.7634 4.56463C12.9251 4.72241 13.0616 4.90412 13.1681 5.1034C13.4884 4.72987 13.8855 4.42988 14.3324 4.22394C14.7793 4.01801 15.2654 3.91098 15.7574 3.91016H19.6525C20.3458 3.91041 21.0226 4.12157 21.5929 4.51558C22.1633 4.90959 22.6004 5.46781 22.846 6.1161C22.985 6.4926 23.0557 6.89087 23.0548 7.29221V11.8883C23.0548 12.0194 23.0063 12.1459 22.9186 12.2434C22.8309 12.3409 22.7103 12.4025 22.5799 12.4164C20.3938 12.641 18.1975 12.75 15.9999 12.743ZM10.0075 11.4084C11.8711 11.5889 13.8843 11.6805 15.9999 11.6805C18.1159 11.6805 20.1288 11.5889 21.9923 11.4084V7.29224C21.9931 7.01709 21.9449 6.74401 21.8499 6.48577C21.6803 6.04045 21.3793 5.65723 20.9869 5.38699C20.5944 5.11674 20.129 4.97225 19.6525 4.97269H15.7574C15.3211 4.97232 14.8934 5.09429 14.5229 5.32474C14.1525 5.55519 13.854 5.8849 13.6615 6.27643C13.5037 6.59169 13.4225 6.93971 13.4244 7.29224C13.4244 7.43313 13.3684 7.56826 13.2688 7.66789C13.1691 7.76752 13.034 7.82349 12.8931 7.82349C12.7522 7.82349 12.6171 7.76752 12.5175 7.66789C12.4178 7.56826 12.3619 7.43313 12.3619 7.29224V6.05902C12.3414 5.77873 12.2185 5.51578 12.0166 5.32026C11.8532 5.15544 11.6446 5.04273 11.4171 4.99635C11.1897 4.94997 10.9536 4.97201 10.7387 5.05967C10.5238 5.14733 10.3396 5.2967 10.2095 5.48892C10.0794 5.68113 10.0091 5.90759 10.0076 6.1397L10.0075 11.4084Z" fill="#070606"/>
<path d="M16.1281 21.1133H15.8718C14.7854 21.1184 13.7131 20.8663 12.7427 20.3777C11.7724 19.8891 10.9314 19.1778 10.2885 18.3019C10.2303 18.2227 10.1952 18.129 10.1871 18.0311C10.179 17.9333 10.1982 17.835 10.2425 17.7474C10.2869 17.6597 10.3547 17.5861 10.4383 17.5347C10.522 17.4832 10.6183 17.456 10.7165 17.456H14.1266C14.2222 17.4581 14.3167 17.4344 14.3999 17.3873C14.4832 17.3403 14.5522 17.2716 14.5997 17.1885C14.7409 16.9426 14.9445 16.7382 15.1898 16.5959C15.4351 16.4536 15.7136 16.3784 15.9972 16.3779C16.2808 16.3775 16.5595 16.4517 16.8053 16.5932C17.0511 16.7347 17.2553 16.9384 17.3973 17.1839C17.4447 17.268 17.514 17.3378 17.5979 17.3857C17.6818 17.4336 17.777 17.4579 17.8736 17.456H21.2769C21.3751 17.456 21.4714 17.4832 21.5551 17.5347C21.6388 17.5861 21.7066 17.6598 21.7509 17.7474C21.7952 17.835 21.8144 17.9333 21.8063 18.0312C21.7982 18.129 21.7631 18.2228 21.7049 18.3019C21.0626 19.1768 20.2227 19.8875 19.2535 20.3761C18.2843 20.8647 17.2134 21.1172 16.1281 21.1133L16.1281 21.1133ZM11.9043 18.5185C12.986 19.5117 14.4033 20.0591 15.8718 20.0508H16.1281C17.5944 20.0575 19.0091 19.5103 20.0891 18.5185H17.8736C17.5892 18.5198 17.3096 18.4454 17.0635 18.303C16.8174 18.1605 16.6136 17.9551 16.4731 17.7079C16.4238 17.6259 16.3539 17.5581 16.2705 17.5112C16.1871 17.4644 16.0929 17.44 15.9972 17.4404C15.9015 17.4409 15.8076 17.4662 15.7246 17.5139C15.6417 17.5616 15.5725 17.6301 15.524 17.7125C15.3833 17.9586 15.1799 18.163 14.9343 18.3046C14.6888 18.4462 14.41 18.52 14.1266 18.5185H11.9043Z" fill="#070606"/>
<path d="M22.5236 12.9116L22.4084 12.8989L22.3347 12.8914H9.66516L9.59149 12.8989C9.51384 12.9162 9.4333 12.9158 9.35582 12.8978C9.27834 12.8798 9.2059 12.8446 9.14385 12.7948C9.0818 12.745 9.03173 12.6819 8.99732 12.6102C8.96291 12.5385 8.94506 12.4599 8.94507 12.3804V11.8883C8.94507 11.8138 8.96075 11.7401 8.99108 11.6721C9.02142 11.604 9.06573 11.5431 9.12114 11.4933C9.17656 11.4435 9.24183 11.4059 9.31273 11.383C9.38362 11.36 9.45854 11.3523 9.53263 11.3602C11.6813 11.5804 13.8401 11.6874 16 11.6805C18.1599 11.6874 20.3187 11.5804 22.4673 11.3602C22.5414 11.3519 22.6164 11.3595 22.6874 11.3824C22.7583 11.4054 22.8235 11.4432 22.8787 11.4933C22.9342 11.5431 22.9785 11.604 23.0088 11.672C23.0392 11.7401 23.0549 11.8138 23.0549 11.8883V12.3804C23.0549 12.4502 23.0411 12.5192 23.0144 12.5837C22.9877 12.6482 22.9486 12.7067 22.8993 12.7561C22.8499 12.8054 22.7914 12.8445 22.7269 12.8712C22.6625 12.8979 22.5934 12.9117 22.5236 12.9116H22.5236Z" fill="#070606"/>
<path d="M18.6213 22.9461H13.3716C13.2307 22.9461 13.0956 22.8901 12.9959 22.7905C12.8963 22.6908 12.8403 22.5557 12.8403 22.4148V20.0831C12.8404 19.9954 12.862 19.9092 12.9035 19.832C12.9449 19.7547 13.0048 19.689 13.0778 19.6405C13.1508 19.592 13.2346 19.5623 13.3219 19.5541C13.4091 19.5459 13.497 19.5594 13.5778 19.5933C14.3041 19.8979 15.0841 20.0535 15.8717 20.0507H16.128C16.9133 20.053 17.691 19.8976 18.4151 19.5936C18.4958 19.5595 18.5838 19.546 18.671 19.5542C18.7583 19.5624 18.8421 19.592 18.9151 19.6405C18.9881 19.689 19.048 19.7547 19.0895 19.8319C19.1309 19.9092 19.1526 19.9954 19.1526 20.0831V22.4148C19.1526 22.5557 19.0966 22.6908 18.997 22.7905C18.8973 22.8901 18.7622 22.9461 18.6213 22.9461ZM13.9028 21.8836H18.0901V20.8351C17.4526 21.0207 16.7919 21.1144 16.128 21.1131H15.8717C15.2055 21.1145 14.5425 21.0208 13.9028 20.8348V21.8836Z" fill="#070606"/>
<path d="M18.8574 21.9389L18.3857 22.8909L29.08 28.1896L29.5517 27.2377L18.8574 21.9389Z" fill="#070606"/>
<path d="M13.1362 21.9393L2.44165 27.2371L2.91324 28.1891L13.6078 22.8913L13.1362 21.9393Z" fill="#070606"/>
<path d="M22.3348 18.5183H17.8737C17.5893 18.5196 17.3097 18.4453 17.0636 18.3028C16.8175 18.1603 16.6137 17.9549 16.4732 17.7077C16.4238 17.6257 16.354 17.558 16.2706 17.5111C16.1872 17.4642 16.093 17.4398 15.9973 17.4403C15.9016 17.4407 15.8077 17.4661 15.7247 17.5138C15.6417 17.5615 15.5726 17.6299 15.524 17.7124C15.3834 17.9585 15.1799 18.1628 14.9344 18.3044C14.6889 18.446 14.4101 18.5198 14.1266 18.5183H9.66524C9.23854 18.5179 8.82945 18.3482 8.5277 18.0465C8.22596 17.7448 8.0562 17.3357 8.05567 16.909V13.4382C8.05496 13.06 8.1881 12.6938 8.43151 12.4043C8.67491 12.1149 9.01289 11.9209 9.38561 11.8567C9.47753 11.8372 9.57129 11.8278 9.66524 11.8287H22.3348C22.4371 11.8283 22.539 11.8393 22.6388 11.8616C23.0069 11.9294 23.3394 12.1245 23.5781 12.4127C23.8168 12.701 23.9464 13.064 23.9444 13.4382V16.909C23.9439 17.3357 23.7741 17.7448 23.4724 18.0465C23.1706 18.3482 22.7615 18.5178 22.3348 18.5183ZM16 16.3778C16.2836 16.3755 16.5627 16.449 16.8084 16.5907C17.054 16.7323 17.2574 16.9371 17.3974 17.1837C17.4448 17.2679 17.5141 17.3376 17.598 17.3855C17.6818 17.4334 17.7771 17.4577 17.8737 17.4558H22.3348C22.4798 17.4557 22.6189 17.398 22.7214 17.2955C22.824 17.193 22.8817 17.054 22.8819 16.909V13.4383C22.8809 13.3108 22.8355 13.1877 22.7536 13.0901C22.6716 12.9926 22.5582 12.9266 22.4329 12.9036C22.4008 12.8957 22.3679 12.8915 22.3348 12.8912H9.66524L9.59157 12.8987C9.46163 12.9182 9.34279 12.9831 9.25613 13.0818C9.16948 13.1806 9.1206 13.3069 9.11817 13.4383V16.909C9.11837 17.054 9.17609 17.193 9.27865 17.2955C9.3812 17.398 9.52023 17.4557 9.66524 17.4558H14.1266C14.2223 17.458 14.3167 17.4342 14.4 17.3872C14.4833 17.3401 14.5523 17.2714 14.5998 17.1884C14.7397 16.9407 14.9433 16.7349 15.1895 16.5923C15.4357 16.4498 15.7155 16.3757 16 16.3778Z" fill="#070606"/>
</svg>
